<svg width="1200" height="630" viewBox="0 0 1200 630" xmlns="http://www.w3.org/2000/svg"><mask id="satori_om-id"><rect x="0" y="0" width="1200" height="630" fill="#fff"/></mask><rect x="0" y="0" width="1200" height="630" fill="#fefbfb"/><defs><clipPath id="satori_bc-id-0"><path x="105" y="39" width="1056" height="504" d="M109,39 h1048 a4,4 0 0 1 4,4 v496 a4,4 0 0 1 -4,4 h-1048 a4,4 0 0 1 -4,-4 v-496 a4,4 0 0 1 4,-4"/></clipPath></defs><mask id="satori_om-id-0"><rect x="109" y="43" width="1048" height="496" fill="#fff"/><path width="1056" height="504" fill="none" stroke="#000" stroke-width="8" d="M106.172,40.172 A4,4 0 0 1 109,39 h1048 a4,4 0 0 1 4,4 v496 a4,4 0 0 1 -4,4 h-1048 a4,4 0 0 1 -4,-4 v-496 A4,4 0 0 1 106.172,40.172"/></mask><g opacity="0.9"><path x="105" y="39" width="1056" height="504" fill="#ecebeb" d="M109,39 h1048 a4,4 0 0 1 4,4 v496 a4,4 0 0 1 -4,4 h-1048 a4,4 0 0 1 -4,-4 v-496 a4,4 0 0 1 4,-4"/><path width="1056" height="504" clip-path="url(#satori_bc-id-0)" fill="none" stroke="#000" stroke-width="8" d="M106.172,40.172 A4,4 0 0 1 109,39 h1048 a4,4 0 0 1 4,4 v496 a4,4 0 0 1 -4,4 h-1048 a4,4 0 0 1 -4,-4 v-496 A4,4 0 0 1 106.172,40.172"/></g><defs><clipPath id="satori_bc-id-1"><path x="72" y="63" width="1056" height="504" d="M76,63 h1048 a4,4 0 0 1 4,4 v496 a4,4 0 0 1 -4,4 h-1048 a4,4 0 0 1 -4,-4 v-496 a4,4 0 0 1 4,-4"/></clipPath></defs><mask id="satori_om-id-1"><rect x="76" y="67" width="1048" height="496" fill="#fff"/><path width="1056" height="504" fill="none" stroke="#000" stroke-width="8" d="M73.172,64.172 A4,4 0 0 1 76,63 h1048 a4,4 0 0 1 4,4 v496 a4,4 0 0 1 -4,4 h-1048 a4,4 0 0 1 -4,-4 v-496 A4,4 0 0 1 73.172,64.172"/></mask><path x="72" y="63" width="1056" height="504" fill="#fefbfb" d="M76,63 h1048 a4,4 0 0 1 4,4 v496 a4,4 0 0 1 -4,4 h-1048 a4,4 0 0 1 -4,-4 v-496 a4,4 0 0 1 4,-4"/><path width="1056" height="504" clip-path="url(#satori_bc-id-1)" fill="none" stroke="#000" stroke-width="8" d="M73.172,64.172 A4,4 0 0 1 76,63 h1048 a4,4 0 0 1 4,4 v496 a4,4 0 0 1 -4,4 h-1048 a4,4 0 0 1 -4,-4 v-496 A4,4 0 0 1 73.172,64.172"/><mask id="satori_om-id-1-0"><rect x="128" y="87" width="944" height="446" fill="#fff"/></mask><clipPath id="satori_cp-id-1-0-0"><rect x="128" y="103" width="944" height="281"/></clipPath><mask id="satori_om-id-1-0-0"><rect x="128" y="103" width="944" height="281" fill="#fff"/></mask><path fill="black" d="M150.8 183.8L150.8 183.8Q140.7 183.8 135.8 177.0Q131.0 170.2 131.0 157.8L131.0 157.8Q131.0 145.4 135.8 138.6Q140.7 131.8 150.8 131.8L150.8 131.8Q154.6 131.8 157.6 132.9Q160.6 133.9 162.8 135.8Q164.9 137.7 166.3 140.3Q167.7 143.0 168.5 146.3L168.5 146.3L158.5 148.8Q158.0 147.0 157.4 145.4Q156.9 143.9 156.0 142.8Q155.1 141.8 153.7 141.2Q152.4 140.5 150.5 140.5L150.5 140.5Q146.1 140.5 144.3 144.0Q142.5 147.4 142.5 153.4L142.5 153.4L142.5 162.2Q142.5 168.3 144.3 171.7Q146.1 175.1 150.5 175.1L150.5 175.1Q154.3 175.1 156.0 172.8Q157.7 170.5 158.5 166.9L158.5 166.9L168.5 169.3Q167.7 172.7 166.3 175.3Q164.9 178.0 162.8 179.9Q160.6 181.8 157.6 182.8Q154.6 183.8 150.8 183.8ZM176.5 183.0L176.5 174.7L185.1 174.7L185.1 154.1L176.5 154.1L176.5 145.8L195.8 145.8L195.8 156.3L196.3 156.3Q196.8 154.3 197.7 152.4Q198.6 150.5 200.0 149.0Q201.4 147.5 203.4 146.7Q205.4 145.8 208.1 145.8L208.1 145.8L211.7 145.8L211.7 155.6L203.7 155.6Q199.8 155.6 197.8 157.9Q195.8 160.3 195.8 163.7L195.8 163.7L195.8 174.7L208.0 174.7L208.0 183.0L176.5 183.0ZM237.0 183.8L237.0 183.8Q227.6 183.8 222.8 178.6Q218.0 173.4 218.0 164.5L218.0 164.5Q218.0 160.0 219.3 156.3Q220.5 152.7 222.9 150.2Q225.2 147.6 228.5 146.3Q231.9 144.9 236.1 144.9L236.1 144.9Q240.2 144.9 243.6 146.3Q246.9 147.6 249.2 150.0Q251.5 152.5 252.7 156.0Q254.0 159.5 254.0 163.8L254.0 163.8L254.0 167.0L228.6 167.0L228.6 167.6Q228.6 171.2 230.8 173.4Q233.0 175.6 237.4 175.6L237.4 175.6Q240.7 175.6 243.1 174.3Q245.4 173.1 247.2 171.0L247.2 171.0L252.9 177.3Q250.8 179.9 246.9 181.9Q243.0 183.8 237.0 183.8ZM236.1 152.6L236.1 152.6Q232.7 152.6 230.6 154.7Q228.6 156.8 228.6 160.4L228.6 160.4L228.6 161.0L243.6 161.0L243.6 160.4Q243.6 156.7 241.6 154.7Q239.6 152.6 236.1 152.6ZM298.8 183.0L292.7 183.0Q289.4 183.0 287.3 181.3Q285.3 179.6 285.0 176.4L285.0 176.4L284.6 176.4Q283.6 180.1 280.6 181.9Q277.6 183.8 273.3 183.8L273.3 183.8Q267.9 183.8 264.6 180.9Q261.3 178.0 261.3 172.7L261.3 172.7Q261.3 166.9 265.6 164.1Q269.8 161.3 278.0 161.3L278.0 161.3L284.0 161.3L284.0 159.4Q284.0 156.1 282.5 154.4Q280.9 152.7 277.3 152.7L277.3 152.7Q273.9 152.7 271.8 154.0Q269.7 155.3 268.2 157.4L268.2 157.4L262.4 152.2Q264.2 149.0 268.2 147.0Q272.2 144.9 278.5 144.9L278.5 144.9Q286.1 144.9 290.4 148.4Q294.7 151.9 294.7 159.0L294.7 159.0L294.7 175.2L298.8 175.2L298.8 183.0ZM277.3 176.8L277.3 176.8Q280.1 176.8 282.1 175.5Q284.0 174.1 284.0 171.5L284.0 171.5L284.0 167.0L278.3 167.0Q271.8 167.0 271.8 171.4L271.8 171.4L271.8 172.9Q271.8 174.8 273.3 175.8Q274.8 176.8 277.3 176.8ZM339.0 183.0L325.3 183.0Q319.5 183.0 316.7 179.9Q313.9 176.9 313.9 172.2L313.9 172.2L313.9 154.1L303.8 154.1L303.8 145.8L310.4 145.8Q312.8 145.8 313.8 144.9Q314.8 143.9 314.8 141.4L314.8 141.4L314.8 132.7L324.6 132.7L324.6 145.8L339.0 145.8L339.0 154.1L324.6 154.1L324.6 174.7L339.0 174.7L339.0 183.0ZM367.9 141.0L367.9 141.0Q364.3 141.0 362.9 139.6Q361.5 138.1 361.5 136.0L361.5 136.0L361.5 133.9Q361.5 131.8 362.9 130.3Q364.3 128.9 367.9 128.9L367.9 128.9Q371.5 128.9 372.9 130.3Q374.3 131.8 374.3 133.9L374.3 133.9L374.3 136.0Q374.3 138.1 372.9 139.6Q371.5 141.0 367.9 141.0ZM350.8 183.0L350.8 174.7L362.6 174.7L362.6 154.1L350.8 154.1L350.8 145.8L373.2 145.8L373.2 174.7L384.2 174.7L384.2 183.0L350.8 183.0ZM402.5 183.0L391.9 183.0L391.9 145.8L402.5 145.8L402.5 152.6L403.0 152.6Q403.6 151.0 404.6 149.6Q405.5 148.2 406.8 147.2Q408.2 146.2 409.9 145.5Q411.7 144.9 413.9 144.9L413.9 144.9Q416.6 144.9 418.8 145.8Q421.0 146.7 422.6 148.5Q424.2 150.3 425.1 152.9Q426.0 155.5 426.0 158.9L426.0 158.9L426.0 183.0L415.4 183.0L415.4 160.3Q415.4 153.1 409.1 153.1L409.1 153.1Q407.9 153.1 406.7 153.5Q405.5 153.8 404.6 154.5Q403.6 155.2 403.1 156.2Q402.5 157.2 402.5 158.5L402.5 158.5L402.5 183.0ZM472.4 186.7L472.4 186.7Q472.4 192.6 467.4 195.4Q462.4 198.2 451.8 198.2L451.8 198.2Q446.5 198.2 443.0 197.6Q439.5 197.0 437.5 195.8Q435.4 194.7 434.6 193.1Q433.8 191.5 433.8 189.6L433.8 189.6Q433.8 186.5 435.7 184.9Q437.5 183.2 440.9 182.4L440.9 182.4L440.9 181.9Q438.5 181.2 437.1 179.9Q435.7 178.6 435.7 176.1L435.7 176.1Q435.7 173.4 437.6 172.1Q439.4 170.8 442.4 170.1L442.4 170.1L442.4 169.6Q439.1 168.0 437.3 165.2Q435.4 162.3 435.4 158.2L435.4 158.2Q435.4 154.9 436.6 152.5Q437.7 150.0 439.9 148.3Q442.0 146.7 444.9 145.8Q447.9 144.9 451.6 144.9L451.6 144.9Q455.1 144.9 458.1 145.7L458.1 145.7L458.1 143.7Q458.1 141.6 459.6 140.1Q461.1 138.7 463.8 138.7L463.8 138.7L470.4 138.7L470.4 146.4L461.4 146.4L461.4 147.1Q464.5 148.7 466.1 151.5Q467.8 154.2 467.8 158.2L467.8 158.2Q467.8 161.4 466.7 163.9Q465.5 166.3 463.4 168.0Q461.2 169.7 458.2 170.6Q455.2 171.4 451.6 171.4L451.6 171.4Q449.9 171.4 448.4 171.3Q446.9 171.1 445.5 170.7L445.5 170.7Q444.7 171.1 444.2 171.8Q443.6 172.4 443.6 173.4L443.6 173.4Q443.6 174.3 444.1 174.8Q444.5 175.3 445.3 175.6Q446.0 175.8 447.0 175.9Q448.0 176.0 449.1 176.0L449.1 176.0L457.6 176.0Q461.6 176.0 464.4 176.8Q467.2 177.6 469.0 179.0Q470.8 180.4 471.6 182.4Q472.4 184.3 472.4 186.7ZM462.3 187.5L462.3 187.5Q462.3 186.0 461.1 185.2Q460.0 184.4 456.8 184.4L456.8 184.4L444.0 184.4Q442.6 185.6 442.6 187.4L442.6 187.4Q442.6 189.1 444.0 190.3Q445.5 191.4 449.0 191.4L449.0 191.4L455.3 191.4Q459.0 191.4 460.6 190.4Q462.3 189.4 462.3 187.5ZM451.6 164.7L451.6 164.7Q454.8 164.7 456.3 163.1Q457.8 161.5 457.8 159.0L457.8 159.0L457.8 157.3Q457.8 154.9 456.3 153.3Q454.8 151.7 451.6 151.7L451.6 151.7Q448.4 151.7 447.0 153.3Q445.5 154.9 445.5 157.3L445.5 157.3L445.5 159.0Q445.5 161.5 447.0 163.1Q448.4 164.7 451.6 164.7Z M558.0 183.0L551.9 183.0Q548.6 183.0 546.5 181.3Q544.5 179.6 544.2 176.4L544.2 176.4L543.8 176.4Q542.8 180.1 539.8 181.9Q536.8 183.8 532.5 183.8L532.5 183.8Q527.1 183.8 523.8 180.9Q520.5 178.0 520.5 172.7L520.5 172.7Q520.5 166.9 524.8 164.1Q529.0 161.3 537.2 161.3L537.2 161.3L543.2 161.3L543.2 159.4Q543.2 156.1 541.7 154.4Q540.1 152.7 536.5 152.7L536.5 152.7Q533.1 152.7 531.0 154.0Q528.9 155.3 527.4 157.4L527.4 157.4L521.6 152.2Q523.4 149.0 527.4 147.0Q531.4 144.9 537.7 144.9L537.7 144.9Q545.3 144.9 549.6 148.4Q553.9 151.9 553.9 159.0L553.9 159.0L553.9 175.2L558.0 175.2L558.0 183.0ZM536.5 176.8L536.5 176.8Q539.3 176.8 541.3 175.5Q543.2 174.1 543.2 171.5L543.2 171.5L543.2 167.0L537.5 167.0Q531.0 167.0 531.0 171.4L531.0 171.4L531.0 172.9Q531.0 174.8 532.5 175.8Q534.0 176.8 536.5 176.8Z M132.2 291.0L132.2 239.4L142.9 239.4L142.9 246.2L143.4 246.2Q144.8 242.9 147.4 240.7Q150.0 238.5 154.4 238.5L154.4 238.5Q157.5 238.5 160.1 239.7Q162.6 240.8 164.5 243.2Q166.3 245.6 167.3 249.3Q168.4 252.9 168.4 258.0L168.4 258.0Q168.4 263.0 167.3 266.7Q166.3 270.4 164.5 272.7Q162.6 275.1 160.1 276.3Q157.5 277.4 154.4 277.4L154.4 277.4Q150.0 277.4 147.4 275.3Q144.8 273.2 143.4 269.8L143.4 269.8L142.9 269.8L142.9 291.0L132.2 291.0ZM149.8 269.1L149.8 269.1Q153.4 269.1 155.4 266.9Q157.3 264.7 157.3 260.9L157.3 260.9L157.3 255.1Q157.3 251.2 155.4 249.0Q153.4 246.8 149.8 246.8L149.8 246.8Q147.0 246.8 145.0 248.2Q142.9 249.6 142.9 252.5L142.9 252.5L142.9 263.4Q142.9 266.4 145.0 267.8Q147.0 269.1 149.8 269.1ZM175.9 276.6L175.9 223.3L186.5 223.3L186.5 246.2L187.0 246.2Q187.6 244.6 188.6 243.2Q189.5 241.8 190.8 240.8Q192.2 239.8 193.9 239.1Q195.7 238.5 197.9 238.5L197.9 238.5Q200.6 238.5 202.8 239.4Q205.0 240.3 206.6 242.1Q208.2 243.9 209.1 246.5Q210.0 249.1 210.0 252.5L210.0 252.5L210.0 276.6L199.4 276.6L199.4 253.9Q199.4 246.7 193.1 246.7L193.1 246.7Q191.9 246.7 190.7 247.1Q189.5 247.4 188.6 248.1Q187.6 248.8 187.1 249.8Q186.5 250.8 186.5 252.1L186.5 252.1L186.5 276.6L175.9 276.6ZM236.0 277.4L236.0 277.4Q231.7 277.4 228.2 276.1Q224.8 274.8 222.4 272.2Q219.9 269.7 218.6 266.1Q217.4 262.5 217.4 258.0L217.4 258.0Q217.4 253.4 218.6 249.8Q219.9 246.2 222.4 243.7Q224.8 241.2 228.2 239.9Q231.7 238.5 236.0 238.5L236.0 238.5Q240.3 238.5 243.8 239.9Q247.2 241.2 249.6 243.7Q252.1 246.2 253.4 249.8Q254.6 253.4 254.6 258.0L254.6 258.0Q254.6 262.5 253.4 266.1Q252.1 269.7 249.6 272.2Q247.2 274.8 243.8 276.1Q240.3 277.4 236.0 277.4ZM236.0 269.5L236.0 269.5Q239.6 269.5 241.6 267.3Q243.6 265.0 243.6 260.9L243.6 260.9L243.6 255.0Q243.6 250.9 241.6 248.7Q239.6 246.5 236.0 246.5L236.0 246.5Q232.4 246.5 230.4 248.7Q228.4 250.9 228.4 255.0L228.4 255.0L228.4 260.9Q228.4 265.0 230.4 267.3Q232.4 269.5 236.0 269.5ZM295.8 276.6L282.1 276.6Q276.3 276.6 273.5 273.5Q270.7 270.5 270.7 265.8L270.7 265.8L270.7 247.7L260.6 247.7L260.6 239.4L267.2 239.4Q269.6 239.4 270.6 238.5Q271.6 237.5 271.6 235.0L271.6 235.0L271.6 226.3L281.4 226.3L281.4 239.4L295.8 239.4L295.8 247.7L281.4 247.7L281.4 268.3L295.8 268.3L295.8 276.6ZM322.4 277.4L322.4 277.4Q318.1 277.4 314.6 276.1Q311.2 274.8 308.8 272.2Q306.3 269.7 305.0 266.1Q303.8 262.5 303.8 258.0L303.8 258.0Q303.8 253.4 305.0 249.8Q306.3 246.2 308.8 243.7Q311.2 241.2 314.6 239.9Q318.1 238.5 322.4 238.5L322.4 238.5Q326.7 238.5 330.2 239.9Q333.6 241.2 336.0 243.7Q338.5 246.2 339.8 249.8Q341.0 253.4 341.0 258.0L341.0 258.0Q341.0 262.5 339.8 266.1Q338.5 269.7 336.0 272.2Q333.6 274.8 330.2 276.1Q326.7 277.4 322.4 277.4ZM322.4 269.5L322.4 269.5Q326.0 269.5 328.0 267.3Q330.0 265.0 330.0 260.9L330.0 260.9L330.0 255.0Q330.0 250.9 328.0 248.7Q326.0 246.5 322.4 246.5L322.4 246.5Q318.8 246.5 316.8 248.7Q314.8 250.9 314.8 255.0L314.8 255.0L314.8 260.9Q314.8 265.0 316.8 267.3Q318.8 269.5 322.4 269.5ZM348.2 291.0L348.2 239.4L358.9 239.4L358.9 246.2L359.4 246.2Q360.8 242.9 363.4 240.7Q366.0 238.5 370.4 238.5L370.4 238.5Q373.5 238.5 376.1 239.7Q378.6 240.8 380.5 243.2Q382.3 245.6 383.3 249.3Q384.4 252.9 384.4 258.0L384.4 258.0Q384.4 263.0 383.3 266.7Q382.3 270.4 380.5 272.7Q378.6 275.1 376.1 276.3Q373.5 277.4 370.4 277.4L370.4 277.4Q366.0 277.4 363.4 275.3Q360.8 273.2 359.4 269.8L359.4 269.8L358.9 269.8L358.9 291.0L348.2 291.0ZM365.8 269.1L365.8 269.1Q369.4 269.1 371.4 266.9Q373.3 264.7 373.3 260.9L373.3 260.9L373.3 255.1Q373.3 251.2 371.4 249.0Q369.4 246.8 365.8 246.8L365.8 246.8Q363.0 246.8 361.0 248.2Q358.9 249.6 358.9 252.5L358.9 252.5L358.9 263.4Q358.9 266.4 361.0 267.8Q363.0 269.1 365.8 269.1ZM429.2 280.3L429.2 280.3Q429.2 286.2 424.2 289.0Q419.2 291.8 408.6 291.8L408.6 291.8Q403.3 291.8 399.8 291.2Q396.3 290.6 394.3 289.4Q392.2 288.3 391.4 286.7Q390.6 285.1 390.6 283.2L390.6 283.2Q390.6 280.1 392.5 278.5Q394.3 276.8 397.7 276.0L397.7 276.0L397.7 275.5Q395.3 274.8 393.9 273.5Q392.5 272.2 392.5 269.7L392.5 269.7Q392.5 267.0 394.4 265.7Q396.2 264.4 399.2 263.7L399.2 263.7L399.2 263.2Q395.9 261.6 394.1 258.8Q392.2 255.9 392.2 251.8L392.2 251.8Q392.2 248.5 393.4 246.1Q394.5 243.6 396.7 241.9Q398.8 240.3 401.7 239.4Q404.7 238.5 408.4 238.5L408.4 238.5Q411.9 238.5 414.9 239.3L414.9 239.3L414.9 237.3Q414.9 235.2 416.4 233.7Q417.9 232.3 420.6 232.3L420.6 232.3L427.2 232.3L427.2 240.0L418.2 240.0L418.2 240.7Q421.3 242.3 422.9 245.1Q424.6 247.8 424.6 251.8L424.6 251.8Q424.6 255.0 423.5 257.5Q422.3 259.9 420.2 261.6Q418.0 263.3 415.0 264.2Q412.0 265.0 408.4 265.0L408.4 265.0Q406.7 265.0 405.2 264.9Q403.7 264.7 402.3 264.3L402.3 264.3Q401.5 264.7 401.0 265.4Q400.4 266.0 400.4 267.0L400.4 267.0Q400.4 267.9 400.9 268.4Q401.3 268.9 402.1 269.2Q402.8 269.4 403.8 269.5Q404.8 269.6 405.9 269.6L405.9 269.6L414.4 269.6Q418.4 269.6 421.2 270.4Q424.0 271.2 425.8 272.6Q427.6 274.0 428.4 276.0Q429.2 277.9 429.2 280.3ZM419.1 281.1L419.1 281.1Q419.1 279.6 417.9 278.8Q416.8 278.0 413.6 278.0L413.6 278.0L400.8 278.0Q399.4 279.2 399.4 281.0L399.4 281.0Q399.4 282.7 400.8 283.9Q402.3 285.0 405.8 285.0L405.8 285.0L412.1 285.0Q415.8 285.0 417.4 284.0Q419.1 283.0 419.1 281.1ZM408.4 258.3L408.4 258.3Q411.6 258.3 413.1 256.7Q414.6 255.1 414.6 252.6L414.6 252.6L414.6 250.9Q414.6 248.5 413.1 246.9Q411.6 245.3 408.4 245.3L408.4 245.3Q405.2 245.3 403.8 246.9Q402.3 248.5 402.3 250.9L402.3 250.9L402.3 252.6Q402.3 255.1 403.8 256.7Q405.2 258.3 408.4 258.3ZM435.7 276.6L435.7 268.3L444.3 268.3L444.3 247.7L435.7 247.7L435.7 239.4L455.0 239.4L455.0 249.9L455.5 249.9Q456.0 247.9 456.9 246.0Q457.8 244.1 459.2 242.6Q460.6 241.1 462.6 240.3Q464.6 239.4 467.3 239.4L467.3 239.4L470.9 239.4L470.9 249.2L462.9 249.2Q459.0 249.2 457.0 251.5Q455.0 253.9 455.0 257.3L455.0 257.3L455.0 268.3L467.2 268.3L467.2 276.6L435.7 276.6ZM514.8 276.6L508.7 276.6Q505.4 276.6 503.3 274.9Q501.3 273.2 501.0 270.0L501.0 270.0L500.6 270.0Q499.6 273.7 496.6 275.5Q493.6 277.4 489.3 277.4L489.3 277.4Q483.9 277.4 480.6 274.5Q477.3 271.6 477.3 266.3L477.3 266.3Q477.3 260.5 481.6 257.7Q485.8 254.9 494.0 254.9L494.0 254.9L500.0 254.9L500.0 253.0Q500.0 249.7 498.5 248.0Q496.9 246.3 493.3 246.3L493.3 246.3Q489.9 246.3 487.8 247.6Q485.7 248.9 484.2 251.0L484.2 251.0L478.4 245.8Q480.2 242.6 484.2 240.6Q488.2 238.5 494.5 238.5L494.5 238.5Q502.1 238.5 506.4 242.0Q510.7 245.5 510.7 252.6L510.7 252.6L510.7 268.8L514.8 268.8L514.8 276.6ZM493.3 270.4L493.3 270.4Q496.1 270.4 498.1 269.1Q500.0 267.7 500.0 265.1L500.0 265.1L500.0 260.6L494.3 260.6Q487.8 260.6 487.8 265.0L487.8 265.0L487.8 266.5Q487.8 268.4 489.3 269.4Q490.8 270.4 493.3 270.4ZM521.0 291.0L521.0 239.4L531.7 239.4L531.7 246.2L532.2 246.2Q533.6 242.9 536.2 240.7Q538.8 238.5 543.2 238.5L543.2 238.5Q546.3 238.5 548.9 239.7Q551.4 240.8 553.3 243.2Q555.1 245.6 556.1 249.3Q557.2 252.9 557.2 258.0L557.2 258.0Q557.2 263.0 556.1 266.7Q555.1 270.4 553.3 272.7Q551.4 275.1 548.9 276.3Q546.3 277.4 543.2 277.4L543.2 277.4Q538.8 277.4 536.2 275.3Q533.6 273.2 532.2 269.8L532.2 269.8L531.7 269.8L531.7 291.0L521.0 291.0ZM538.6 269.1L538.6 269.1Q542.2 269.1 544.2 266.9Q546.1 264.7 546.1 260.9L546.1 260.9L546.1 255.1Q546.1 251.2 544.2 249.0Q542.2 246.8 538.6 246.8L538.6 246.8Q535.8 246.8 533.8 248.2Q531.7 249.6 531.7 252.5L531.7 252.5L531.7 263.4Q531.7 266.4 533.8 267.8Q535.8 269.1 538.6 269.1ZM564.7 276.6L564.7 223.3L575.3 223.3L575.3 246.2L575.8 246.2Q576.4 244.6 577.4 243.2Q578.3 241.8 579.6 240.8Q581.0 239.8 582.7 239.1Q584.5 238.5 586.7 238.5L586.7 238.5Q589.4 238.5 591.6 239.4Q593.8 240.3 595.4 242.1Q597.0 243.9 597.9 246.5Q598.8 249.1 598.8 252.5L598.8 252.5L598.8 276.6L588.2 276.6L588.2 253.9Q588.2 246.7 581.9 246.7L581.9 246.7Q580.7 246.7 579.5 247.1Q578.3 247.4 577.4 248.1Q576.4 248.8 575.9 249.8Q575.3 250.8 575.3 252.1L575.3 252.1L575.3 276.6L564.7 276.6ZM628.6 255.0L634.2 239.4L645.0 239.4L627.5 282.5Q625.9 286.6 623.1 288.8Q620.4 291.0 615.7 291.0L615.7 291.0L608.3 291.0L608.3 282.7L617.2 282.7L619.5 276.3L604.6 239.4L616.0 239.4L621.4 255.0L624.8 265.8L625.4 265.8L628.6 255.0Z M132.2 384.6L132.2 333.0L142.9 333.0L142.9 339.8L143.4 339.8Q144.8 336.5 147.4 334.3Q150.0 332.1 154.4 332.1L154.4 332.1Q157.5 332.1 160.1 333.3Q162.6 334.4 164.5 336.8Q166.3 339.2 167.3 342.9Q168.4 346.5 168.4 351.6L168.4 351.6Q168.4 356.6 167.3 360.3Q166.3 364.0 164.5 366.3Q162.6 368.7 160.1 369.9Q157.5 371.0 154.4 371.0L154.4 371.0Q150.0 371.0 147.4 368.9Q144.8 366.8 143.4 363.4L143.4 363.4L142.9 363.4L142.9 384.6L132.2 384.6ZM149.8 362.7L149.8 362.7Q153.4 362.7 155.4 360.5Q157.3 358.3 157.3 354.5L157.3 354.5L157.3 348.7Q157.3 344.8 155.4 342.6Q153.4 340.4 149.8 340.4L149.8 340.4Q147.0 340.4 145.0 341.8Q142.9 343.2 142.9 346.1L142.9 346.1L142.9 357.0Q142.9 360.0 145.0 361.4Q147.0 362.7 149.8 362.7ZM192.8 371.0L192.8 371.0Q188.5 371.0 185.0 369.7Q181.6 368.4 179.2 365.8Q176.7 363.3 175.4 359.7Q174.2 356.1 174.2 351.6L174.2 351.6Q174.2 347.0 175.4 343.4Q176.7 339.8 179.2 337.3Q181.6 334.8 185.0 333.5Q188.5 332.1 192.8 332.1L192.8 332.1Q197.1 332.1 200.6 333.5Q204.0 334.8 206.4 337.3Q208.9 339.8 210.2 343.4Q211.4 347.0 211.4 351.6L211.4 351.6Q211.4 356.1 210.2 359.7Q208.9 363.3 206.4 365.8Q204.0 368.4 200.6 369.7Q197.1 371.0 192.8 371.0ZM192.8 363.1L192.8 363.1Q196.4 363.1 198.4 360.9Q200.4 358.6 200.4 354.5L200.4 354.5L200.4 348.6Q200.4 344.5 198.4 342.3Q196.4 340.1 192.8 340.1L192.8 340.1Q189.2 340.1 187.2 342.3Q185.2 344.5 185.2 348.6L185.2 348.6L185.2 354.5Q185.2 358.6 187.2 360.9Q189.2 363.1 192.8 363.1ZM219.7 370.2L219.7 361.9L228.3 361.9L228.3 341.3L219.7 341.3L219.7 333.0L239.0 333.0L239.0 343.5L239.5 343.5Q240.0 341.5 240.9 339.6Q241.8 337.7 243.2 336.2Q244.6 334.7 246.6 333.9Q248.6 333.0 251.3 333.0L251.3 333.0L254.9 333.0L254.9 342.8L246.9 342.8Q243.0 342.8 241.0 345.1Q239.0 347.5 239.0 350.9L239.0 350.9L239.0 361.9L251.2 361.9L251.2 370.2L219.7 370.2ZM295.8 370.2L282.1 370.2Q276.3 370.2 273.5 367.1Q270.7 364.1 270.7 359.4L270.7 359.4L270.7 341.3L260.6 341.3L260.6 333.0L267.2 333.0Q269.6 333.0 270.6 332.1Q271.6 331.1 271.6 328.6L271.6 328.6L271.6 319.9L281.4 319.9L281.4 333.0L295.8 333.0L295.8 341.3L281.4 341.3L281.4 361.9L295.8 361.9L295.8 370.2ZM305.9 370.2L305.9 361.9L316.9 361.9L316.9 341.3L305.2 341.3L305.2 333.0L316.9 333.0L316.9 327.6Q316.9 322.8 319.6 319.9Q322.4 316.9 328.2 316.9L328.2 316.9L340.8 316.9L340.8 325.2L327.5 325.2L327.5 333.0L340.8 333.0L340.8 341.3L327.5 341.3L327.5 361.9L339.2 361.9L339.2 370.2L305.9 370.2ZM365.6 371.0L365.6 371.0Q361.3 371.0 357.8 369.7Q354.4 368.4 352.0 365.8Q349.5 363.3 348.2 359.7Q347.0 356.1 347.0 351.6L347.0 351.6Q347.0 347.0 348.2 343.4Q349.5 339.8 352.0 337.3Q354.4 334.8 357.8 333.5Q361.3 332.1 365.6 332.1L365.6 332.1Q369.9 332.1 373.4 333.5Q376.8 334.8 379.2 337.3Q381.7 339.8 383.0 343.4Q384.2 347.0 384.2 351.6L384.2 351.6Q384.2 356.1 383.0 359.7Q381.7 363.3 379.2 365.8Q376.8 368.4 373.4 369.7Q369.9 371.0 365.6 371.0ZM365.6 363.1L365.6 363.1Q369.2 363.1 371.2 360.9Q373.2 358.6 373.2 354.5L373.2 354.5L373.2 348.6Q373.2 344.5 371.2 342.3Q369.2 340.1 365.6 340.1L365.6 340.1Q362.0 340.1 360.0 342.3Q358.0 344.5 358.0 348.6L358.0 348.6L358.0 354.5Q358.0 358.6 360.0 360.9Q362.0 363.1 365.6 363.1ZM392.1 370.2L392.1 361.9L403.5 361.9L403.5 325.2L392.1 325.2L392.1 316.9L414.1 316.9L414.1 361.9L425.5 361.9L425.5 370.2L392.1 370.2ZM454.3 328.2L454.3 328.2Q450.7 328.2 449.3 326.8Q447.9 325.3 447.9 323.2L447.9 323.2L447.9 321.1Q447.9 319.0 449.3 317.5Q450.7 316.1 454.3 316.1L454.3 316.1Q457.9 316.1 459.3 317.5Q460.7 319.0 460.7 321.1L460.7 321.1L460.7 323.2Q460.7 325.3 459.3 326.8Q457.9 328.2 454.3 328.2ZM437.2 370.2L437.2 361.9L449.0 361.9L449.0 341.3L437.2 341.3L437.2 333.0L459.6 333.0L459.6 361.9L470.6 361.9L470.6 370.2L437.2 370.2ZM495.2 371.0L495.2 371.0Q490.9 371.0 487.4 369.7Q484.0 368.4 481.6 365.8Q479.1 363.3 477.8 359.7Q476.6 356.1 476.6 351.6L476.6 351.6Q476.6 347.0 477.8 343.4Q479.1 339.8 481.6 337.3Q484.0 334.8 487.4 333.5Q490.9 332.1 495.2 332.1L495.2 332.1Q499.5 332.1 503.0 333.5Q506.4 334.8 508.8 337.3Q511.3 339.8 512.6 343.4Q513.8 347.0 513.8 351.6L513.8 351.6Q513.8 356.1 512.6 359.7Q511.3 363.3 508.8 365.8Q506.4 368.4 503.0 369.7Q499.5 371.0 495.2 371.0ZM495.2 363.1L495.2 363.1Q498.8 363.1 500.8 360.9Q502.8 358.6 502.8 354.5L502.8 354.5L502.8 348.6Q502.8 344.5 500.8 342.3Q498.8 340.1 495.2 340.1L495.2 340.1Q491.6 340.1 489.6 342.3Q487.6 344.5 487.6 348.6L487.6 348.6L487.6 354.5Q487.6 358.6 489.6 360.9Q491.6 363.1 495.2 363.1Z M564.9 370.2L560.5 333.0L569.4 333.0L572.0 363.1L572.7 363.1L577.1 333.0L586.5 333.0L590.8 363.1L591.5 363.1L594.3 333.0L602.7 333.0L598.3 370.2L585.6 370.2L582.0 344.5L581.2 344.5L577.6 370.2L564.9 370.2ZM625.8 371.0L625.8 371.0Q616.4 371.0 611.6 365.8Q606.8 360.6 606.8 351.7L606.8 351.7Q606.8 347.2 608.1 343.5Q609.3 339.9 611.7 337.4Q614.0 334.8 617.3 333.5Q620.7 332.1 624.9 332.1L624.9 332.1Q629.0 332.1 632.4 333.5Q635.7 334.8 638.0 337.2Q640.3 339.7 641.5 343.2Q642.8 346.7 642.8 351.0L642.8 351.0L642.8 354.2L617.4 354.2L617.4 354.8Q617.4 358.4 619.6 360.6Q621.8 362.8 626.2 362.8L626.2 362.8Q629.5 362.8 631.9 361.5Q634.2 360.3 636.0 358.2L636.0 358.2L641.7 364.5Q639.6 367.1 635.7 369.1Q631.8 371.0 625.8 371.0ZM624.9 339.8L624.9 339.8Q621.5 339.8 619.4 341.9Q617.4 344.0 617.4 347.6L617.4 347.6L617.4 348.2L632.4 348.2L632.4 347.6Q632.4 343.9 630.4 341.9Q628.4 339.8 624.9 339.8ZM650.6 370.2L650.6 316.9L661.3 316.9L661.3 339.8L661.8 339.8Q663.2 336.5 665.8 334.3Q668.4 332.1 672.8 332.1L672.8 332.1Q675.9 332.1 678.5 333.3Q681.0 334.4 682.9 336.8Q684.7 339.2 685.7 342.9Q686.8 346.5 686.8 351.6L686.8 351.6Q686.8 356.6 685.7 360.3Q684.7 364.0 682.9 366.3Q681.0 368.7 678.5 369.9Q675.9 371.0 672.8 371.0L672.8 371.0Q668.4 371.0 665.8 368.9Q663.2 366.8 661.8 363.4L661.8 363.4L661.3 363.4L661.3 370.2L650.6 370.2ZM668.2 362.7L668.2 362.7Q671.8 362.7 673.8 360.5Q675.7 358.3 675.7 354.5L675.7 354.5L675.7 348.7Q675.7 344.8 673.8 342.6Q671.8 340.4 668.2 340.4L668.2 340.4Q665.4 340.4 663.4 341.8Q661.3 343.2 661.3 346.1L661.3 346.1L661.3 357.0Q661.3 360.0 663.4 361.4Q665.4 362.7 668.2 362.7ZM710.8 371.0L710.8 371.0Q704.6 371.0 700.0 369.1Q695.4 367.3 693.1 364.0L693.1 364.0L699.1 358.5Q701.3 360.9 704.2 362.2Q707.1 363.5 710.8 363.5L710.8 363.5Q714.0 363.5 715.8 362.6Q717.6 361.6 717.6 359.6L717.6 359.6Q717.6 358.0 716.4 357.4Q715.2 356.8 713 356.4L713 356.4L707.0 355.5Q704.5 355.1 702.3 354.3Q700.2 353.6 698.6 352.3Q697.0 351.0 696.1 349.1Q695.1 347.3 695.1 344.6L695.1 344.6Q695.1 338.8 699.6 335.4Q704.1 332.1 712.1 332.1L712.1 332.1Q717.6 332.1 721.5 333.6Q725.3 335.1 727.6 337.8L727.6 337.8L722.3 343.9Q720.6 342.1 718.0 340.8Q715.4 339.6 711.8 339.6L711.8 339.6Q705.6 339.6 705.6 343.4L705.6 343.4Q705.6 345.0 706.8 345.6Q708.0 346.2 710.2 346.6L710.2 346.6L716.1 347.5Q718.6 347.9 720.8 348.7Q722.9 349.4 724.6 350.7Q726.2 352.0 727.1 353.9Q728.0 355.8 728.0 358.4L728.0 358.4Q728.0 364.2 723.5 367.6Q719.0 371.0 710.8 371.0ZM756.7 328.2L756.7 328.2Q753.1 328.2 751.7 326.8Q750.3 325.3 750.3 323.2L750.3 323.2L750.3 321.1Q750.3 319.0 751.7 317.5Q753.1 316.1 756.7 316.1L756.7 316.1Q760.3 316.1 761.7 317.5Q763.1 319.0 763.1 321.1L763.1 321.1L763.1 323.2Q763.1 325.3 761.7 326.8Q760.3 328.2 756.7 328.2ZM739.6 370.2L739.6 361.9L751.4 361.9L751.4 341.3L739.6 341.3L739.6 333.0L762.0 333.0L762.0 361.9L773.0 361.9L773.0 370.2L739.6 370.2ZM814.2 370.2L800.5 370.2Q794.7 370.2 791.9 367.1Q789.1 364.1 789.1 359.4L789.1 359.4L789.1 341.3L779.0 341.3L779.0 333.0L785.6 333.0Q788.0 333.0 789.0 332.1Q790.0 331.1 790.0 328.6L790.0 328.6L790.0 319.9L799.8 319.9L799.8 333.0L814.2 333.0L814.2 341.3L799.8 341.3L799.8 361.9L814.2 361.9L814.2 370.2ZM841.8 371.0L841.8 371.0Q832.4 371.0 827.6 365.8Q822.8 360.6 822.8 351.7L822.8 351.7Q822.8 347.2 824.1 343.5Q825.3 339.9 827.7 337.4Q830.0 334.8 833.3 333.5Q836.7 332.1 840.9 332.1L840.9 332.1Q845.0 332.1 848.4 333.5Q851.7 334.8 854.0 337.2Q856.3 339.7 857.5 343.2Q858.8 346.7 858.8 351.0L858.8 351.0L858.8 354.2L833.4 354.2L833.4 354.8Q833.4 358.4 835.6 360.6Q837.8 362.8 842.2 362.8L842.2 362.8Q845.5 362.8 847.9 361.5Q850.2 360.3 852.0 358.2L852.0 358.2L857.7 364.5Q855.6 367.1 851.7 369.1Q847.8 371.0 841.8 371.0ZM840.9 339.8L840.9 339.8Q837.5 339.8 835.4 341.9Q833.4 344.0 833.4 347.6L833.4 347.6L833.4 348.2L848.4 348.2L848.4 347.6Q848.4 343.9 846.4 341.9Q844.4 339.8 840.9 339.8Z " clip-path="url(#satori_cp-id-1-0-0)" mask="url(#satori_om-id-1-0-0)"/><mask id="satori_om-id-1-0-1"><rect x="128" y="489" width="944" height="36" fill="#fff"/></mask><mask id="satori_om-id-1-0-1-0"><rect x="128" y="489" width="202" height="36" fill="#fff"/></mask><path fill="black" d="M130.7 520.3L130.7 499.6L132.9 499.6L132.9 508.2L133.0 508.2Q134.4 505.5 137.5 505.5L137.5 505.5Q140.1 505.5 141.6 507.5Q143.1 509.5 143.1 513.0L143.1 513.0Q143.1 516.6 141.6 518.6Q140.1 520.6 137.5 520.6L137.5 520.6Q134.4 520.6 133.0 517.9L133.0 517.9L132.9 517.9L132.9 520.3L130.7 520.3ZM136.6 518.6L136.6 518.6Q138.6 518.6 139.6 517.4Q140.7 516.2 140.7 514.3L140.7 514.3L140.7 511.8Q140.7 509.9 139.6 508.7Q138.6 507.5 136.6 507.5L136.6 507.5Q135.8 507.5 135.2 507.7Q134.5 507.9 134.0 508.2Q133.5 508.6 133.2 509.2Q132.9 509.7 132.9 510.4L132.9 510.4L132.9 515.7Q132.9 516.4 133.2 516.9Q133.5 517.5 134.0 517.8Q134.5 518.2 135.2 518.4Q135.8 518.6 136.6 518.6ZM155.4 511.9L157.9 505.8L160.1 505.8L152.9 523.4Q152.7 524.1 152.4 524.5Q152.1 525.0 151.7 525.3Q151.2 525.6 150.7 525.7Q150.1 525.9 149.3 525.9L149.3 525.9L147.1 525.9L147.1 524.0L150.5 524.0L152.1 520.0L146.3 505.8L148.6 505.8L151.0 511.9L153.2 517.4L153.3 517.4L155.4 511.9Z "/><mask id="satori_om-id-1-0-1-0-1"><rect x="162" y="489" width="17" height="36" fill="#fff"/></mask><clipPath id="satori_cp-id-1-0-1-0-2"><rect x="178" y="489" width="151" height="36"/></clipPath><mask id="satori_om-id-1-0-1-0-2"><rect x="178" y="489" width="151" height="36" fill="#fff"/></mask><path fill="black" d="M186.1 520.4L186.1 520.4Q183.6 520.4 181.8 519.6Q180.0 518.8 178.9 517.4L178.9 517.4L181.3 514.7Q182.4 515.9 183.6 516.5Q184.9 517.0 186.2 517.0L186.2 517.0Q187.7 517.0 188.5 516.3Q189.3 515.7 189.3 514.4L189.3 514.4Q189.3 513.4 188.7 512.8Q188.1 512.3 186.7 512.1L186.7 512.1L184.6 511.7Q182.0 511.3 180.8 509.8Q179.7 508.3 179.7 506.1L179.7 506.1Q179.7 503.3 181.5 501.8Q183.3 500.2 186.7 500.2L186.7 500.2Q188.9 500.2 190.6 500.9Q192.3 501.6 193.3 502.8L193.3 502.8L191.0 505.5Q190.2 504.6 189.1 504.1Q188.1 503.6 186.7 503.6L186.7 503.6Q183.9 503.6 183.9 506.0L183.9 506.0Q183.9 507.0 184.5 507.5Q185.1 508.0 186.6 508.2L186.6 508.2L188.6 508.6Q191.0 509.0 192.3 510.4Q193.6 511.7 193.6 514.1L193.6 514.1Q193.6 515.4 193.1 516.6Q192.6 517.8 191.7 518.6Q190.7 519.5 189.3 520.0Q187.9 520.4 186.1 520.4ZM210.8 520.1L208.4 520.1Q207.1 520.1 206.4 519.4Q205.6 518.8 205.4 517.5L205.4 517.5L205.3 517.5Q204.9 519.0 203.7 519.7Q202.6 520.4 200.9 520.4L200.9 520.4Q198.8 520.4 197.5 519.3Q196.3 518.2 196.3 516.1L196.3 516.1Q196.3 513.8 197.9 512.8Q199.6 511.7 202.8 511.7L202.8 511.7L205.1 511.7L205.1 510.9Q205.1 509.6 204.5 509.0Q203.9 508.3 202.4 508.3L202.4 508.3Q201.1 508.3 200.3 508.8Q199.5 509.3 198.9 510.2L198.9 510.2L196.6 508.1Q197.4 506.9 198.9 506.1Q200.5 505.3 202.9 505.3L202.9 505.3Q205.9 505.3 207.6 506.7Q209.2 508.0 209.2 510.8L209.2 510.8L209.2 517.1L210.8 517.1L210.8 520.1ZM202.5 517.7L202.5 517.7Q203.6 517.7 204.3 517.2Q205.1 516.6 205.1 515.6L205.1 515.6L205.1 513.9L202.9 513.9Q200.3 513.9 200.3 515.6L200.3 515.6L200.3 516.2Q200.3 516.9 200.9 517.3Q201.5 517.7 202.5 517.7ZM226.5 520.1L221.1 520.1Q218.9 520.1 217.8 518.9Q216.7 517.7 216.7 515.9L216.7 515.9L216.7 508.9L212.8 508.9L212.8 505.6L215.3 505.6Q216.2 505.6 216.6 505.3Q217.0 504.9 217.0 503.9L217.0 503.9L217.0 500.5L220.8 500.5L220.8 505.6L226.5 505.6L226.5 508.9L220.8 508.9L220.8 516.9L226.5 516.9L226.5 520.1Z M255.3 520.1L250.8 507.1L250.5 507.1L250.5 520.1L246.9 520.1L246.9 500.5L251.9 500.5L256.4 513.5L256.7 513.5L256.7 500.5L260.3 500.5L260.3 520.1L255.3 520.1ZM278.0 520.1L275.6 520.1Q274.3 520.1 273.6 519.4Q272.8 518.8 272.6 517.5L272.6 517.5L272.5 517.5Q272.1 519.0 270.9 519.7Q269.8 520.4 268.1 520.4L268.1 520.4Q266.0 520.4 264.7 519.3Q263.5 518.2 263.5 516.1L263.5 516.1Q263.5 513.8 265.1 512.8Q266.8 511.7 270.0 511.7L270.0 511.7L272.3 511.7L272.3 510.9Q272.3 509.6 271.7 509.0Q271.1 508.3 269.6 508.3L269.6 508.3Q268.3 508.3 267.5 508.8Q266.7 509.3 266.1 510.2L266.1 510.2L263.8 508.1Q264.6 506.9 266.1 506.1Q267.7 505.3 270.1 505.3L270.1 505.3Q273.1 505.3 274.8 506.7Q276.4 508.0 276.4 510.8L276.4 510.8L276.4 517.1L278.0 517.1L278.0 520.1ZM269.7 517.7L269.7 517.7Q270.8 517.7 271.5 517.2Q272.3 516.6 272.3 515.6L272.3 515.6L272.3 513.9L270.1 513.9Q267.5 513.9 267.5 515.6L267.5 515.6L267.5 516.2Q267.5 516.9 268.1 517.3Q268.7 517.7 269.7 517.7ZM288.1 503.8L288.1 503.8Q286.7 503.8 286.2 503.2Q285.6 502.6 285.6 501.8L285.6 501.8L285.6 501.0Q285.6 500.2 286.2 499.6Q286.7 499.1 288.1 499.1L288.1 499.1Q289.5 499.1 290.0 499.6Q290.6 500.2 290.6 501.0L290.6 501.0L290.6 501.8Q290.6 502.6 290.0 503.2Q289.5 503.8 288.1 503.8ZM281.4 520.1L281.4 516.9L286.0 516.9L286.0 508.9L281.4 508.9L281.4 505.6L290.2 505.6L290.2 516.9L294.4 516.9L294.4 520.1L281.4 520.1ZM301.6 520.1L297.4 520.1L297.4 505.6L301.6 505.6L301.6 508.3L301.7 508.3Q302.0 507.7 302.3 507.1Q302.7 506.6 303.2 506.2Q303.7 505.8 304.4 505.5Q305.1 505.3 306.0 505.3L306.0 505.3Q307.0 505.3 307.9 505.7Q308.8 506.0 309.4 506.7Q310.0 507.4 310.3 508.4Q310.7 509.4 310.7 510.7L310.7 510.7L310.7 520.1L306.5 520.1L306.5 511.3Q306.5 508.5 304.1 508.5L304.1 508.5Q303.6 508.5 303.2 508.6Q302.7 508.8 302.3 509.0Q302.0 509.3 301.8 509.7Q301.6 510.1 301.6 510.6L301.6 510.6L301.6 520.1ZM328.7 521.5L328.7 521.5Q328.7 523.8 326.8 524.9Q324.9 526.0 320.7 526.0L320.7 526.0Q318.6 526.0 317.3 525.8Q316.0 525.6 315.2 525.1Q314.4 524.7 314.0 524.0Q313.7 523.4 313.7 522.7L313.7 522.7Q313.7 521.5 314.4 520.8Q315.2 520.2 316.5 519.9L316.5 519.9L316.5 519.7Q315.6 519.4 315.0 518.9Q314.5 518.4 314.5 517.4L314.5 517.4Q314.5 516.4 315.2 515.9Q315.9 515.4 317.1 515.1L317.1 515.1L317.1 514.9Q315.8 514.3 315.1 513.2Q314.4 512.1 314.4 510.5L314.4 510.5Q314.4 509.2 314.8 508.2Q315.3 507.3 316.1 506.6Q316.9 506.0 318.1 505.6Q319.2 505.3 320.6 505.3L320.6 505.3Q322.0 505.3 323.2 505.6L323.2 505.6L323.2 504.8Q323.2 504.0 323.8 503.4Q324.4 502.9 325.4 502.9L325.4 502.9L327.9 502.9L327.9 505.9L324.5 505.9L324.5 506.1Q325.6 506.8 326.3 507.8Q327.0 508.9 327.0 510.5L327.0 510.5Q327.0 511.7 326.5 512.7Q326.1 513.6 325.2 514.3Q324.4 514.9 323.2 515.3Q322.1 515.6 320.6 515.6L320.6 515.6Q320.0 515.6 319.4 515.5Q318.8 515.5 318.3 515.3L318.3 515.3Q318.0 515.5 317.8 515.8Q317.6 516.0 317.6 516.4L317.6 516.4Q317.6 516.7 317.7 516.9Q317.9 517.1 318.2 517.2Q318.5 517.3 318.9 517.3Q319.3 517.4 319.7 517.4L319.7 517.4L323.0 517.4Q324.5 517.4 325.6 517.7Q326.7 518.0 327.4 518.6Q328.1 519.1 328.4 519.9Q328.7 520.6 328.7 521.5ZM324.8 521.9L324.8 521.9Q324.8 521.3 324.4 521.0Q323.9 520.7 322.6 520.7L322.6 520.7L317.7 520.7Q317.1 521.1 317.1 521.8L317.1 521.8Q317.1 522.5 317.7 522.9Q318.3 523.4 319.7 523.4L319.7 523.4L322.1 523.4Q323.5 523.4 324.2 523.0Q324.8 522.6 324.8 521.9ZM320.6 513.0L320.6 513.0Q321.9 513.0 322.5 512.4Q323.0 511.7 323.0 510.8L323.0 510.8L323.0 510.1Q323.0 509.2 322.5 508.6Q321.9 507.9 320.6 507.9L320.6 507.9Q319.4 507.9 318.8 508.6Q318.3 509.2 318.3 510.1L318.3 510.1L318.3 510.8Q318.3 511.7 318.8 512.4Q319.4 513.0 320.6 513.0Z " clip-path="url(#satori_cp-id-1-0-1-0-2)" mask="url(#satori_om-id-1-0-1-0-2)"/><clipPath id="satori_cp-id-1-0-1-1"><rect x="870" y="489" width="202" height="36"/></clipPath><mask id="satori_om-id-1-0-1-1"><rect x="870" y="489" width="202" height="36" fill="#fff"/></mask><path fill="black" d="M871.8 520.1L871.8 499.4L876.0 499.4L876.0 511.1L876.2 511.1L878.1 508.9L881.1 505.6L885.9 505.6L880.3 511.4L886.5 520.1L881.5 520.1L877.3 513.7L876.0 515.1L876.0 520.1L871.8 520.1ZM895.6 520.4L895.6 520.4Q892.0 520.4 890.1 518.4Q888.2 516.4 888.2 512.9L888.2 512.9Q888.2 511.2 888.7 509.7Q889.2 508.3 890.1 507.3Q891 506.3 892.3 505.8Q893.6 505.3 895.2 505.3L895.2 505.3Q896.9 505.3 898.1 505.8Q899.4 506.3 900.3 507.3Q901.2 508.2 901.7 509.6Q902.2 511.0 902.2 512.6L902.2 512.6L902.2 513.9L892.3 513.9L892.3 514.1Q892.3 515.5 893.2 516.4Q894.1 517.2 895.7 517.2L895.7 517.2Q897.0 517.2 897.9 516.7Q898.9 516.3 899.5 515.4L899.5 515.4L901.8 517.9Q900.9 518.9 899.4 519.7Q897.9 520.4 895.6 520.4ZM895.3 508.3L895.3 508.3Q893.9 508.3 893.1 509.1Q892.3 509.9 892.3 511.3L892.3 511.3L892.3 511.6L898.1 511.6L898.1 511.3Q898.1 509.9 897.4 509.1Q896.6 508.3 895.3 508.3ZM905.7 520.1L905.7 516.9L909.0 516.9L909.0 508.9L905.7 508.9L905.7 505.6L913.1 505.6L913.1 509.7L913.3 509.7Q913.5 508.9 913.9 508.2Q914.2 507.5 914.8 506.9Q915.3 506.3 916.1 506.0Q916.9 505.6 918.0 505.6L918.0 505.6L919.3 505.6L919.3 509.5L916.3 509.5Q914.7 509.5 913.9 510.4Q913.1 511.3 913.1 512.6L913.1 512.6L913.1 516.9L917.9 516.9L917.9 520.1L905.7 520.1ZM922.5 520.1L922.5 516.9L925.8 516.9L925.8 508.9L922.5 508.9L922.5 505.6L929.9 505.6L929.9 509.7L930.1 509.7Q930.3 508.9 930.7 508.2Q931.0 507.5 931.6 506.9Q932.1 506.3 932.9 506.0Q933.7 505.6 934.8 505.6L934.8 505.6L936.1 505.6L936.1 509.5L933.1 509.5Q931.5 509.5 930.7 510.4Q929.9 511.3 929.9 512.6L929.9 512.6L929.9 516.9L934.7 516.9L934.7 520.1L922.5 520.1ZM946.5 503.8L946.5 503.8Q945.1 503.8 944.5 503.2Q944.0 502.6 944.0 501.8L944.0 501.8L944.0 501.0Q944.0 500.2 944.5 499.6Q945.1 499.1 946.5 499.1L946.5 499.1Q947.9 499.1 948.4 499.6Q949.0 500.2 949.0 501.0L949.0 501.0L949.0 501.8Q949.0 502.6 948.4 503.2Q947.9 503.8 946.5 503.8ZM939.8 520.1L939.8 516.9L944.4 516.9L944.4 508.9L939.8 508.9L939.8 505.6L948.6 505.6L948.6 516.9L952.8 516.9L952.8 520.1L939.8 520.1ZM964.2 508.5L960.6 508.5L960.6 499.4L964.2 499.4L964.2 508.5ZM979.0 520.4L979.0 520.4Q976.6 520.4 974.8 519.7Q973.1 519.0 972.2 517.7L972.2 517.7L974.5 515.6Q975.3 516.5 976.5 517.0Q977.6 517.5 979.1 517.5L979.1 517.5Q980.3 517.5 981.0 517.1Q981.7 516.8 981.7 516.0L981.7 516.0Q981.7 515.4 981.2 515.1Q980.7 514.9 979.9 514.7L979.9 514.7L977.6 514.4Q976.6 514.2 975.8 513.9Q974.9 513.7 974.3 513.1Q973.7 512.6 973.3 511.9Q973.0 511.2 973.0 510.2L973.0 510.2Q973.0 507.9 974.7 506.6Q976.4 505.3 979.6 505.3L979.6 505.3Q981.7 505.3 983.2 505.9Q984.7 506.5 985.6 507.5L985.6 507.5L983.5 509.9Q982.9 509.2 981.9 508.7Q980.9 508.2 979.4 508.2L979.4 508.2Q977.0 508.2 977.0 509.7L977.0 509.7Q977.0 510.3 977.5 510.6Q978.0 510.8 978.8 510.9L978.8 510.9L981.1 511.3Q982.1 511.4 982.9 511.7Q983.8 512.0 984.4 512.5Q985.0 513.0 985.4 513.8Q985.8 514.5 985.8 515.5L985.8 515.5Q985.8 517.8 984.0 519.1Q982.3 520.4 979.0 520.4Z M1006.1 520.1L1006.1 499.4L1010.2 499.4L1010.2 508.3L1010.4 508.3Q1010.9 507.0 1011.9 506.1Q1012.9 505.3 1014.7 505.3L1014.7 505.3Q1015.9 505.3 1016.9 505.8Q1017.9 506.2 1018.6 507.1Q1019.3 508.1 1019.7 509.5Q1020.1 510.9 1020.1 512.9L1020.1 512.9Q1020.1 514.8 1019.7 516.3Q1019.3 517.7 1018.6 518.6Q1017.9 519.5 1016.9 520.0Q1015.9 520.4 1014.7 520.4L1014.7 520.4Q1012.9 520.4 1011.9 519.6Q1010.9 518.8 1010.4 517.5L1010.4 517.5L1010.2 517.5L1010.2 520.1L1006.1 520.1ZM1012.9 517.2L1012.9 517.2Q1014.3 517.2 1015.0 516.4Q1015.8 515.5 1015.8 514.0L1015.8 514.0L1015.8 511.7Q1015.8 510.2 1015.0 509.4Q1014.3 508.5 1012.9 508.5L1012.9 508.5Q1011.8 508.5 1011.0 509.1Q1010.2 509.6 1010.2 510.7L1010.2 510.7L1010.2 515.0Q1010.2 516.1 1011.0 516.7Q1011.8 517.2 1012.9 517.2ZM1023.1 520.1L1023.1 516.9L1027.5 516.9L1027.5 502.6L1023.1 502.6L1023.1 499.4L1031.7 499.4L1031.7 516.9L1036.1 516.9L1036.1 520.1L1023.1 520.1ZM1046.4 520.4L1046.4 520.4Q1044.7 520.4 1043.4 519.9Q1042.0 519.4 1041.1 518.4Q1040.2 517.4 1039.7 516.0Q1039.1 514.6 1039.1 512.9L1039.1 512.9Q1039.1 511.1 1039.7 509.7Q1040.2 508.3 1041.1 507.3Q1042.0 506.3 1043.4 505.8Q1044.7 505.3 1046.4 505.3L1046.4 505.3Q1048.1 505.3 1049.4 505.8Q1050.8 506.3 1051.7 507.3Q1052.6 508.3 1053.1 509.7Q1053.7 511.1 1053.7 512.9L1053.7 512.9Q1053.7 514.6 1053.1 516.0Q1052.6 517.4 1051.7 518.4Q1050.8 519.4 1049.4 519.9Q1048.1 520.4 1046.4 520.4ZM1046.4 517.3L1046.4 517.3Q1047.8 517.3 1048.6 516.5Q1049.4 515.6 1049.4 514.0L1049.4 514.0L1049.4 511.7Q1049.4 510.1 1048.6 509.3Q1047.8 508.4 1046.4 508.4L1046.4 508.4Q1045 508.4 1044.2 509.3Q1043.4 510.1 1043.4 511.7L1043.4 511.7L1043.4 514.0Q1043.4 515.6 1044.2 516.5Q1045 517.3 1046.4 517.3ZM1071.1 521.5L1071.1 521.5Q1071.1 523.8 1069.2 524.9Q1067.3 526.0 1063.1 526.0L1063.1 526.0Q1061.0 526.0 1059.7 525.8Q1058.4 525.6 1057.6 525.1Q1056.8 524.7 1056.4 524.0Q1056.1 523.4 1056.1 522.7L1056.1 522.7Q1056.1 521.5 1056.8 520.8Q1057.6 520.2 1058.9 519.9L1058.9 519.9L1058.9 519.7Q1058.0 519.4 1057.4 518.9Q1056.9 518.4 1056.9 517.4L1056.9 517.4Q1056.9 516.4 1057.6 515.9Q1058.3 515.4 1059.5 515.1L1059.5 515.1L1059.5 514.9Q1058.2 514.3 1057.5 513.2Q1056.8 512.1 1056.8 510.5L1056.8 510.5Q1056.8 509.2 1057.2 508.2Q1057.7 507.3 1058.5 506.6Q1059.3 506.0 1060.5 505.6Q1061.6 505.3 1063.0 505.3L1063.0 505.3Q1064.4 505.3 1065.6 505.6L1065.6 505.6L1065.6 504.8Q1065.6 504.0 1066.2 503.4Q1066.8 502.9 1067.8 502.9L1067.8 502.9L1070.3 502.9L1070.3 505.9L1066.9 505.9L1066.9 506.1Q1068.0 506.8 1068.7 507.8Q1069.4 508.9 1069.4 510.5L1069.4 510.5Q1069.4 511.7 1068.9 512.7Q1068.5 513.6 1067.6 514.3Q1066.8 514.9 1065.6 515.3Q1064.5 515.6 1063.0 515.6L1063.0 515.6Q1062.4 515.6 1061.8 515.5Q1061.2 515.5 1060.7 515.3L1060.7 515.3Q1060.4 515.5 1060.2 515.8Q1060.0 516.0 1060.0 516.4L1060.0 516.4Q1060.0 516.7 1060.1 516.9Q1060.3 517.1 1060.6 517.2Q1060.9 517.3 1061.3 517.3Q1061.7 517.4 1062.1 517.4L1062.1 517.4L1065.4 517.4Q1066.9 517.4 1068.0 517.7Q1069.1 518.0 1069.8 518.6Q1070.5 519.1 1070.8 519.9Q1071.1 520.6 1071.1 521.5ZM1067.2 521.9L1067.2 521.9Q1067.2 521.3 1066.8 521.0Q1066.3 520.7 1065.0 520.7L1065.0 520.7L1060.1 520.7Q1059.5 521.1 1059.5 521.8L1059.5 521.8Q1059.5 522.5 1060.1 522.9Q1060.7 523.4 1062.1 523.4L1062.1 523.4L1064.5 523.4Q1065.9 523.4 1066.6 523.0Q1067.2 522.6 1067.2 521.9ZM1063.0 513.0L1063.0 513.0Q1064.3 513.0 1064.9 512.4Q1065.4 511.7 1065.4 510.8L1065.4 510.8L1065.4 510.1Q1065.4 509.2 1064.9 508.6Q1064.3 507.9 1063.0 507.9L1063.0 507.9Q1061.8 507.9 1061.2 508.6Q1060.7 509.2 1060.7 510.1L1060.7 510.1L1060.7 510.8Q1060.7 511.7 1061.2 512.4Q1061.8 513.0 1063.0 513.0Z " clip-path="url(#satori_cp-id-1-0-1-1)" mask="url(#satori_om-id-1-0-1-1)"/></svg>