<svg width="1200" height="630" viewBox="0 0 1200 630" xmlns="http://www.w3.org/2000/svg"><mask id="satori_om-id"><rect x="0" y="0" width="1200" height="630" fill="#fff"/></mask><rect x="0" y="0" width="1200" height="630" fill="#fefbfb"/><defs><clipPath id="satori_bc-id-0"><path x="105" y="39" width="1056" height="504" d="M109,39 h1048 a4,4 0 0 1 4,4 v496 a4,4 0 0 1 -4,4 h-1048 a4,4 0 0 1 -4,-4 v-496 a4,4 0 0 1 4,-4"/></clipPath></defs><mask id="satori_om-id-0"><rect x="109" y="43" width="1048" height="496" fill="#fff"/><path width="1056" height="504" fill="none" stroke="#000" stroke-width="8" d="M106.172,40.172 A4,4 0 0 1 109,39 h1048 a4,4 0 0 1 4,4 v496 a4,4 0 0 1 -4,4 h-1048 a4,4 0 0 1 -4,-4 v-496 A4,4 0 0 1 106.172,40.172"/></mask><g opacity="0.9"><path x="105" y="39" width="1056" height="504" fill="#ecebeb" d="M109,39 h1048 a4,4 0 0 1 4,4 v496 a4,4 0 0 1 -4,4 h-1048 a4,4 0 0 1 -4,-4 v-496 a4,4 0 0 1 4,-4"/><path width="1056" height="504" clip-path="url(#satori_bc-id-0)" fill="none" stroke="#000" stroke-width="8" d="M106.172,40.172 A4,4 0 0 1 109,39 h1048 a4,4 0 0 1 4,4 v496 a4,4 0 0 1 -4,4 h-1048 a4,4 0 0 1 -4,-4 v-496 A4,4 0 0 1 106.172,40.172"/></g><defs><clipPath id="satori_bc-id-1"><path x="72" y="63" width="1056" height="504" d="M76,63 h1048 a4,4 0 0 1 4,4 v496 a4,4 0 0 1 -4,4 h-1048 a4,4 0 0 1 -4,-4 v-496 a4,4 0 0 1 4,-4"/></clipPath></defs><mask id="satori_om-id-1"><rect x="76" y="67" width="1048" height="496" fill="#fff"/><path width="1056" height="504" fill="none" stroke="#000" stroke-width="8" d="M73.172,64.172 A4,4 0 0 1 76,63 h1048 a4,4 0 0 1 4,4 v496 a4,4 0 0 1 -4,4 h-1048 a4,4 0 0 1 -4,-4 v-496 A4,4 0 0 1 73.172,64.172"/></mask><path x="72" y="63" width="1056" height="504" fill="#fefbfb" d="M76,63 h1048 a4,4 0 0 1 4,4 v496 a4,4 0 0 1 -4,4 h-1048 a4,4 0 0 1 -4,-4 v-496 a4,4 0 0 1 4,-4"/><path width="1056" height="504" clip-path="url(#satori_bc-id-1)" fill="none" stroke="#000" stroke-width="8" d="M73.172,64.172 A4,4 0 0 1 76,63 h1048 a4,4 0 0 1 4,4 v496 a4,4 0 0 1 -4,4 h-1048 a4,4 0 0 1 -4,-4 v-496 A4,4 0 0 1 73.172,64.172"/><mask id="satori_om-id-1-0"><rect x="128" y="87" width="944" height="446" fill="#fff"/></mask><clipPath id="satori_cp-id-1-0-0"><rect x="128" y="103" width="944" height="94"/></clipPath><mask id="satori_om-id-1-0-0"><rect x="128" y="103" width="944" height="94" fill="#fff"/></mask><path fill="black" d="M165.8 183.0L133.4 183.0L133.4 175.0L144.2 175.0L144.2 140.7L133.4 140.7L133.4 132.7L165.8 132.7L165.8 140.7L155 140.7L155 175.0L165.8 175.0L165.8 183.0ZM186.5 183.0L175.9 183.0L175.9 145.8L186.5 145.8L186.5 152.6L187.0 152.6Q187.6 151.0 188.6 149.6Q189.5 148.2 190.8 147.2Q192.2 146.2 193.9 145.5Q195.7 144.9 197.9 144.9L197.9 144.9Q200.6 144.9 202.8 145.8Q205.0 146.7 206.6 148.5Q208.2 150.3 209.1 152.9Q210.0 155.5 210.0 158.9L210.0 158.9L210.0 183.0L199.4 183.0L199.4 160.3Q199.4 153.1 193.1 153.1L193.1 153.1Q191.9 153.1 190.7 153.5Q189.5 153.8 188.6 154.5Q187.6 155.2 187.1 156.2Q186.5 157.2 186.5 158.5L186.5 158.5L186.5 183.0ZM252.6 183.0L238.9 183.0Q233.1 183.0 230.3 179.9Q227.5 176.9 227.5 172.2L227.5 172.2L227.5 154.1L217.4 154.1L217.4 145.8L224.0 145.8Q226.4 145.8 227.4 144.9Q228.4 143.9 228.4 141.4L228.4 141.4L228.4 132.7L238.2 132.7L238.2 145.8L252.6 145.8L252.6 154.1L238.2 154.1L238.2 174.7L252.6 174.7L252.6 183.0ZM280.2 183.8L280.2 183.8Q270.8 183.8 266.0 178.6Q261.2 173.4 261.2 164.5L261.2 164.5Q261.2 160.0 262.5 156.3Q263.7 152.7 266.1 150.2Q268.4 147.6 271.7 146.3Q275.1 144.9 279.3 144.9L279.3 144.9Q283.4 144.9 286.8 146.3Q290.1 147.6 292.4 150.0Q294.7 152.5 295.9 156.0Q297.2 159.5 297.2 163.8L297.2 163.8L297.2 167.0L271.8 167.0L271.8 167.6Q271.8 171.2 274.0 173.4Q276.2 175.6 280.6 175.6L280.6 175.6Q283.9 175.6 286.3 174.3Q288.6 173.1 290.4 171.0L290.4 171.0L296.1 177.3Q294.0 179.9 290.1 181.9Q286.2 183.8 280.2 183.8ZM279.3 152.6L279.3 152.6Q275.9 152.6 273.8 154.7Q271.8 156.8 271.8 160.4L271.8 160.4L271.8 161.0L286.8 161.0L286.8 160.4Q286.8 156.7 284.8 154.7Q282.8 152.6 279.3 152.6ZM306.1 183.0L306.1 174.7L314.7 174.7L314.7 154.1L306.1 154.1L306.1 145.8L325.4 145.8L325.4 156.3L325.9 156.3Q326.4 154.3 327.3 152.4Q328.2 150.5 329.6 149.0Q331.0 147.5 333.0 146.7Q335.0 145.8 337.7 145.8L337.7 145.8L341.3 145.8L341.3 155.6L333.3 155.6Q329.4 155.6 327.4 157.9Q325.4 160.3 325.4 163.7L325.4 163.7L325.4 174.7L337.6 174.7L337.6 183.0L306.1 183.0ZM359.3 183.0L348.7 183.0L348.7 145.8L359.3 145.8L359.3 152.6L359.8 152.6Q360.4 151.0 361.4 149.6Q362.3 148.2 363.6 147.2Q365.0 146.2 366.7 145.5Q368.5 144.9 370.7 144.9L370.7 144.9Q373.4 144.9 375.6 145.8Q377.8 146.7 379.4 148.5Q381.0 150.3 381.9 152.9Q382.8 155.5 382.8 158.9L382.8 158.9L382.8 183.0L372.2 183.0L372.2 160.3Q372.2 153.1 365.9 153.1L365.9 153.1Q364.7 153.1 363.5 153.5Q362.3 153.8 361.4 154.5Q360.4 155.2 359.9 156.2Q359.3 157.2 359.3 158.5L359.3 158.5L359.3 183.0ZM408.4 183.8L408.4 183.8Q402.2 183.8 397.6 181.9Q393.0 180.1 390.7 176.8L390.7 176.8L396.7 171.3Q398.9 173.7 401.8 175.0Q404.7 176.3 408.4 176.3L408.4 176.3Q411.6 176.3 413.4 175.4Q415.2 174.4 415.2 172.4L415.2 172.4Q415.2 170.8 414.0 170.2Q412.8 169.6 410.6 169.2L410.6 169.2L404.6 168.3Q402.1 167.9 399.9 167.1Q397.8 166.4 396.2 165.1Q394.6 163.8 393.7 161.9Q392.7 160.1 392.7 157.4L392.7 157.4Q392.7 151.6 397.2 148.2Q401.7 144.9 409.7 144.9L409.7 144.9Q415.2 144.9 419.1 146.4Q422.9 147.9 425.2 150.6L425.2 150.6L419.9 156.7Q418.2 154.9 415.6 153.6Q413.0 152.4 409.4 152.4L409.4 152.4Q403.2 152.4 403.2 156.2L403.2 156.2Q403.2 157.8 404.4 158.4Q405.6 159.0 407.8 159.4L407.8 159.4L413.7 160.3Q416.2 160.7 418.4 161.5Q420.5 162.2 422.2 163.5Q423.8 164.8 424.7 166.7Q425.6 168.6 425.6 171.2L425.6 171.2Q425.6 177.0 421.1 180.4Q416.6 183.8 408.4 183.8ZM435.1 183.0L435.1 129.7L445.7 129.7L445.7 152.6L446.2 152.6Q446.8 151.0 447.8 149.6Q448.7 148.2 450.0 147.2Q451.4 146.2 453.1 145.5Q454.9 144.9 457.1 144.9L457.1 144.9Q459.8 144.9 462.0 145.8Q464.2 146.7 465.8 148.5Q467.4 150.3 468.3 152.9Q469.2 155.5 469.2 158.9L469.2 158.9L469.2 183.0L458.6 183.0L458.6 160.3Q458.6 153.1 452.3 153.1L452.3 153.1Q451.1 153.1 449.9 153.5Q448.7 153.8 447.8 154.5Q446.8 155.2 446.3 156.2Q445.7 157.2 445.7 158.5L445.7 158.5L445.7 183.0L435.1 183.0ZM497.5 141.0L497.5 141.0Q493.9 141.0 492.5 139.6Q491.1 138.1 491.1 136.0L491.1 136.0L491.1 133.9Q491.1 131.8 492.5 130.3Q493.9 128.9 497.5 128.9L497.5 128.9Q501.1 128.9 502.5 130.3Q503.9 131.8 503.9 133.9L503.9 133.9L503.9 136.0Q503.9 138.1 502.5 139.6Q501.1 141.0 497.5 141.0ZM480.4 183.0L480.4 174.7L492.2 174.7L492.2 154.1L480.4 154.1L480.4 145.8L502.8 145.8L502.8 174.7L513.8 174.7L513.8 183.0L480.4 183.0ZM521.0 197.4L521.0 145.8L531.7 145.8L531.7 152.6L532.2 152.6Q533.6 149.3 536.2 147.1Q538.8 144.9 543.2 144.9L543.2 144.9Q546.3 144.9 548.9 146.1Q551.4 147.2 553.3 149.6Q555.1 152.0 556.1 155.7Q557.2 159.3 557.2 164.4L557.2 164.4Q557.2 169.4 556.1 173.1Q555.1 176.8 553.3 179.1Q551.4 181.5 548.9 182.7Q546.3 183.8 543.2 183.8L543.2 183.8Q538.8 183.8 536.2 181.7Q533.6 179.6 532.2 176.2L532.2 176.2L531.7 176.2L531.7 197.4L521.0 197.4ZM538.6 175.5L538.6 175.5Q542.2 175.5 544.2 173.3Q546.1 171.1 546.1 167.3L546.1 167.3L546.1 161.5Q546.1 157.6 544.2 155.4Q542.2 153.2 538.6 153.2L538.6 153.2Q535.8 153.2 533.8 154.6Q531.7 156.0 531.7 158.9L531.7 158.9L531.7 169.8Q531.7 172.8 533.8 174.2Q535.8 175.5 538.6 175.5Z M644.4 183.0L638.3 183.0Q635.0 183.0 632.9 181.3Q630.9 179.6 630.6 176.4L630.6 176.4L630.2 176.4Q629.2 180.1 626.2 181.9Q623.2 183.8 618.9 183.8L618.9 183.8Q613.5 183.8 610.2 180.9Q606.9 178.0 606.9 172.7L606.9 172.7Q606.9 166.9 611.2 164.1Q615.4 161.3 623.6 161.3L623.6 161.3L629.6 161.3L629.6 159.4Q629.6 156.1 628.1 154.4Q626.5 152.7 622.9 152.7L622.9 152.7Q619.5 152.7 617.4 154.0Q615.3 155.3 613.8 157.4L613.8 157.4L608.0 152.2Q609.8 149.0 613.8 147.0Q617.8 144.9 624.1 144.9L624.1 144.9Q631.7 144.9 636.0 148.4Q640.3 151.9 640.3 159.0L640.3 159.0L640.3 175.2L644.4 175.2L644.4 183.0ZM622.9 176.8L622.9 176.8Q625.7 176.8 627.7 175.5Q629.6 174.1 629.6 171.5L629.6 171.5L629.6 167.0L623.9 167.0Q617.4 167.0 617.4 171.4L617.4 171.4L617.4 172.9Q617.4 174.8 618.9 175.8Q620.4 176.8 622.9 176.8ZM661.7 183.0L651.1 183.0L651.1 145.8L661.7 145.8L661.7 152.6L662.2 152.6Q662.8 151.0 663.8 149.6Q664.7 148.2 666.0 147.2Q667.4 146.2 669.1 145.5Q670.9 144.9 673.1 144.9L673.1 144.9Q675.8 144.9 678.0 145.8Q680.2 146.7 681.8 148.5Q683.4 150.3 684.3 152.9Q685.2 155.5 685.2 158.9L685.2 158.9L685.2 183.0L674.6 183.0L674.6 160.3Q674.6 153.1 668.3 153.1L668.3 153.1Q667.1 153.1 665.9 153.5Q664.7 153.8 663.8 154.5Q662.8 155.2 662.3 156.2Q661.7 157.2 661.7 158.5L661.7 158.5L661.7 183.0ZM717.9 183.0L717.9 176.2L717.4 176.2Q716.0 179.6 713.4 181.7Q710.8 183.8 706.4 183.8L706.4 183.8Q703.3 183.8 700.7 182.7Q698.2 181.5 696.3 179.1Q694.5 176.8 693.5 173.1Q692.4 169.4 692.4 164.4L692.4 164.4Q692.4 159.3 693.5 155.7Q694.5 152.0 696.3 149.6Q698.2 147.2 700.7 146.1Q703.3 144.9 706.4 144.9L706.4 144.9Q708.6 144.9 710.3 145.5Q712.1 146.1 713.4 147.1Q714.7 148.1 715.7 149.5Q716.7 150.9 717.4 152.6L717.4 152.6L717.9 152.6L717.9 129.7L728.6 129.7L728.6 183.0L717.9 183.0ZM711.0 175.5L711.0 175.5Q713.8 175.5 715.8 174.2Q717.9 172.8 717.9 169.8L717.9 169.8L717.9 158.9Q717.9 156.0 715.8 154.6Q713.8 153.2 711.0 153.2L711.0 153.2Q707.4 153.2 705.4 155.4Q703.5 157.6 703.5 161.5L703.5 161.5L703.5 167.3Q703.5 171.1 705.4 173.3Q707.4 175.5 711.0 175.5Z M792.3 183.0L781.5 183.0L781.5 132.7L800.9 132.7Q804.6 132.7 807.5 133.8Q810.3 134.9 812.3 137.0Q814.3 139.1 815.3 142.1Q816.3 145.0 816.3 148.7L816.3 148.7Q816.3 152.4 815.3 155.3Q814.3 158.3 812.3 160.3Q810.3 162.4 807.5 163.5Q804.6 164.7 800.9 164.7L800.9 164.7L792.3 164.7L792.3 183.0ZM792.3 141.4L792.3 156.0L798.2 156.0Q802.0 156.0 803.5 154.5Q804.9 153.1 804.9 149.8L804.9 149.8L804.9 147.6Q804.9 144.3 803.5 142.8Q802.0 141.4 798.2 141.4L798.2 141.4L792.3 141.4ZM847.1 183.0L847.1 161.9L834.5 161.9L834.5 183.0L823.6 183.0L823.6 132.7L834.5 132.7L834.5 153.1L847.1 153.1L847.1 132.7L858.0 132.7L858.0 183.0L847.1 183.0ZM878.7 183.0L867.9 183.0L867.9 132.7L887.3 132.7Q891.0 132.7 893.9 133.8Q896.7 134.9 898.7 137.0Q900.7 139.1 901.7 142.1Q902.7 145.0 902.7 148.7L902.7 148.7Q902.7 152.4 901.7 155.3Q900.7 158.3 898.7 160.3Q896.7 162.4 893.9 163.5Q891.0 164.7 887.3 164.7L887.3 164.7L878.7 164.7L878.7 183.0ZM878.7 141.4L878.7 156.0L884.6 156.0Q888.4 156.0 889.9 154.5Q891.3 153.1 891.3 149.8L891.3 149.8L891.3 147.6Q891.3 144.3 889.9 142.8Q888.4 141.4 884.6 141.4L884.6 141.4L878.7 141.4Z " clip-path="url(#satori_cp-id-1-0-0)" mask="url(#satori_om-id-1-0-0)"/><mask id="satori_om-id-1-0-1"><rect x="128" y="489" width="944" height="36" fill="#fff"/></mask><mask id="satori_om-id-1-0-1-0"><rect x="128" y="489" width="202" height="36" fill="#fff"/></mask><path fill="black" d="M130.7 520.3L130.7 499.6L132.9 499.6L132.9 508.2L133.0 508.2Q134.4 505.5 137.5 505.5L137.5 505.5Q140.1 505.5 141.6 507.5Q143.1 509.5 143.1 513.0L143.1 513.0Q143.1 516.6 141.6 518.6Q140.1 520.6 137.5 520.6L137.5 520.6Q134.4 520.6 133.0 517.9L133.0 517.9L132.9 517.9L132.9 520.3L130.7 520.3ZM136.6 518.6L136.6 518.6Q138.6 518.6 139.6 517.4Q140.7 516.2 140.7 514.3L140.7 514.3L140.7 511.8Q140.7 509.9 139.6 508.7Q138.6 507.5 136.6 507.5L136.6 507.5Q135.8 507.5 135.2 507.7Q134.5 507.9 134.0 508.2Q133.5 508.6 133.2 509.2Q132.9 509.7 132.9 510.4L132.9 510.4L132.9 515.7Q132.9 516.4 133.2 516.9Q133.5 517.5 134.0 517.8Q134.5 518.2 135.2 518.4Q135.8 518.6 136.6 518.6ZM155.4 511.9L157.9 505.8L160.1 505.8L152.9 523.4Q152.7 524.1 152.4 524.5Q152.1 525.0 151.7 525.3Q151.2 525.6 150.7 525.7Q150.1 525.9 149.3 525.9L149.3 525.9L147.1 525.9L147.1 524.0L150.5 524.0L152.1 520.0L146.3 505.8L148.6 505.8L151.0 511.9L153.2 517.4L153.3 517.4L155.4 511.9Z "/><mask id="satori_om-id-1-0-1-0-1"><rect x="162" y="489" width="17" height="36" fill="#fff"/></mask><clipPath id="satori_cp-id-1-0-1-0-2"><rect x="178" y="489" width="151" height="36"/></clipPath><mask id="satori_om-id-1-0-1-0-2"><rect x="178" y="489" width="151" height="36" fill="#fff"/></mask><path fill="black" d="M186.1 520.4L186.1 520.4Q183.6 520.4 181.8 519.6Q180.0 518.8 178.9 517.4L178.9 517.4L181.3 514.7Q182.4 515.9 183.6 516.5Q184.9 517.0 186.2 517.0L186.2 517.0Q187.7 517.0 188.5 516.3Q189.3 515.7 189.3 514.4L189.3 514.4Q189.3 513.4 188.7 512.8Q188.1 512.3 186.7 512.1L186.7 512.1L184.6 511.7Q182.0 511.3 180.8 509.8Q179.7 508.3 179.7 506.1L179.7 506.1Q179.7 503.3 181.5 501.8Q183.3 500.2 186.7 500.2L186.7 500.2Q188.9 500.2 190.6 500.9Q192.3 501.6 193.3 502.8L193.3 502.8L191.0 505.5Q190.2 504.6 189.1 504.1Q188.1 503.6 186.7 503.6L186.7 503.6Q183.9 503.6 183.9 506.0L183.9 506.0Q183.9 507.0 184.5 507.5Q185.1 508.0 186.6 508.2L186.6 508.2L188.6 508.6Q191.0 509.0 192.3 510.4Q193.6 511.7 193.6 514.1L193.6 514.1Q193.6 515.4 193.1 516.6Q192.6 517.8 191.7 518.6Q190.7 519.5 189.3 520.0Q187.9 520.4 186.1 520.4ZM210.8 520.1L208.4 520.1Q207.1 520.1 206.4 519.4Q205.6 518.8 205.4 517.5L205.4 517.5L205.3 517.5Q204.9 519.0 203.7 519.7Q202.6 520.4 200.9 520.4L200.9 520.4Q198.8 520.4 197.5 519.3Q196.3 518.2 196.3 516.1L196.3 516.1Q196.3 513.8 197.9 512.8Q199.6 511.7 202.8 511.7L202.8 511.7L205.1 511.7L205.1 510.9Q205.1 509.6 204.5 509.0Q203.9 508.3 202.4 508.3L202.4 508.3Q201.1 508.3 200.3 508.8Q199.5 509.3 198.9 510.2L198.9 510.2L196.6 508.1Q197.4 506.9 198.9 506.1Q200.5 505.3 202.9 505.3L202.9 505.3Q205.9 505.3 207.6 506.7Q209.2 508.0 209.2 510.8L209.2 510.8L209.2 517.1L210.8 517.1L210.8 520.1ZM202.5 517.7L202.5 517.7Q203.6 517.7 204.3 517.2Q205.1 516.6 205.1 515.6L205.1 515.6L205.1 513.9L202.9 513.9Q200.3 513.9 200.3 515.6L200.3 515.6L200.3 516.2Q200.3 516.9 200.9 517.3Q201.5 517.7 202.5 517.7ZM226.5 520.1L221.1 520.1Q218.9 520.1 217.8 518.9Q216.7 517.7 216.7 515.9L216.7 515.9L216.7 508.9L212.8 508.9L212.8 505.6L215.3 505.6Q216.2 505.6 216.6 505.3Q217.0 504.9 217.0 503.9L217.0 503.9L217.0 500.5L220.8 500.5L220.8 505.6L226.5 505.6L226.5 508.9L220.8 508.9L220.8 516.9L226.5 516.9L226.5 520.1Z M255.3 520.1L250.8 507.1L250.5 507.1L250.5 520.1L246.9 520.1L246.9 500.5L251.9 500.5L256.4 513.5L256.7 513.5L256.7 500.5L260.3 500.5L260.3 520.1L255.3 520.1ZM278.0 520.1L275.6 520.1Q274.3 520.1 273.6 519.4Q272.8 518.8 272.6 517.5L272.6 517.5L272.5 517.5Q272.1 519.0 270.9 519.7Q269.8 520.4 268.1 520.4L268.1 520.4Q266.0 520.4 264.7 519.3Q263.5 518.2 263.5 516.1L263.5 516.1Q263.5 513.8 265.1 512.8Q266.8 511.7 270.0 511.7L270.0 511.7L272.3 511.7L272.3 510.9Q272.3 509.6 271.7 509.0Q271.1 508.3 269.6 508.3L269.6 508.3Q268.3 508.3 267.5 508.8Q266.7 509.3 266.1 510.2L266.1 510.2L263.8 508.1Q264.6 506.9 266.1 506.1Q267.7 505.3 270.1 505.3L270.1 505.3Q273.1 505.3 274.8 506.7Q276.4 508.0 276.4 510.8L276.4 510.8L276.4 517.1L278.0 517.1L278.0 520.1ZM269.7 517.7L269.7 517.7Q270.8 517.7 271.5 517.2Q272.3 516.6 272.3 515.6L272.3 515.6L272.3 513.9L270.1 513.9Q267.5 513.9 267.5 515.6L267.5 515.6L267.5 516.2Q267.5 516.9 268.1 517.3Q268.7 517.7 269.7 517.7ZM288.1 503.8L288.1 503.8Q286.7 503.8 286.2 503.2Q285.6 502.6 285.6 501.8L285.6 501.8L285.6 501.0Q285.6 500.2 286.2 499.6Q286.7 499.1 288.1 499.1L288.1 499.1Q289.5 499.1 290.0 499.6Q290.6 500.2 290.6 501.0L290.6 501.0L290.6 501.8Q290.6 502.6 290.0 503.2Q289.5 503.8 288.1 503.8ZM281.4 520.1L281.4 516.9L286.0 516.9L286.0 508.9L281.4 508.9L281.4 505.6L290.2 505.6L290.2 516.9L294.4 516.9L294.4 520.1L281.4 520.1ZM301.6 520.1L297.4 520.1L297.4 505.6L301.6 505.6L301.6 508.3L301.7 508.3Q302.0 507.7 302.3 507.1Q302.7 506.6 303.2 506.2Q303.7 505.8 304.4 505.5Q305.1 505.3 306.0 505.3L306.0 505.3Q307.0 505.3 307.9 505.7Q308.8 506.0 309.4 506.7Q310.0 507.4 310.3 508.4Q310.7 509.4 310.7 510.7L310.7 510.7L310.7 520.1L306.5 520.1L306.5 511.3Q306.5 508.5 304.1 508.5L304.1 508.5Q303.6 508.5 303.2 508.6Q302.7 508.8 302.3 509.0Q302.0 509.3 301.8 509.7Q301.6 510.1 301.6 510.6L301.6 510.6L301.6 520.1ZM328.7 521.5L328.7 521.5Q328.7 523.8 326.8 524.9Q324.9 526.0 320.7 526.0L320.7 526.0Q318.6 526.0 317.3 525.8Q316.0 525.6 315.2 525.1Q314.4 524.7 314.0 524.0Q313.7 523.4 313.7 522.7L313.7 522.7Q313.7 521.5 314.4 520.8Q315.2 520.2 316.5 519.9L316.5 519.9L316.5 519.7Q315.6 519.4 315.0 518.9Q314.5 518.4 314.5 517.4L314.5 517.4Q314.5 516.4 315.2 515.9Q315.9 515.4 317.1 515.1L317.1 515.1L317.1 514.9Q315.8 514.3 315.1 513.2Q314.4 512.1 314.4 510.5L314.4 510.5Q314.4 509.2 314.8 508.2Q315.3 507.3 316.1 506.6Q316.9 506.0 318.1 505.6Q319.2 505.3 320.6 505.3L320.6 505.3Q322.0 505.3 323.2 505.6L323.2 505.6L323.2 504.8Q323.2 504.0 323.8 503.4Q324.4 502.9 325.4 502.9L325.4 502.9L327.9 502.9L327.9 505.9L324.5 505.9L324.5 506.1Q325.6 506.8 326.3 507.8Q327.0 508.9 327.0 510.5L327.0 510.5Q327.0 511.7 326.5 512.7Q326.1 513.6 325.2 514.3Q324.4 514.9 323.2 515.3Q322.1 515.6 320.6 515.6L320.6 515.6Q320.0 515.6 319.4 515.5Q318.8 515.5 318.3 515.3L318.3 515.3Q318.0 515.5 317.8 515.8Q317.6 516.0 317.6 516.4L317.6 516.4Q317.6 516.7 317.7 516.9Q317.9 517.1 318.2 517.2Q318.5 517.3 318.9 517.3Q319.3 517.4 319.7 517.4L319.7 517.4L323.0 517.4Q324.5 517.4 325.6 517.7Q326.7 518.0 327.4 518.6Q328.1 519.1 328.4 519.9Q328.7 520.6 328.7 521.5ZM324.8 521.9L324.8 521.9Q324.8 521.3 324.4 521.0Q323.9 520.7 322.6 520.7L322.6 520.7L317.7 520.7Q317.1 521.1 317.1 521.8L317.1 521.8Q317.1 522.5 317.7 522.9Q318.3 523.4 319.7 523.4L319.7 523.4L322.1 523.4Q323.5 523.4 324.2 523.0Q324.8 522.6 324.8 521.9ZM320.6 513.0L320.6 513.0Q321.9 513.0 322.5 512.4Q323.0 511.7 323.0 510.8L323.0 510.8L323.0 510.1Q323.0 509.2 322.5 508.6Q321.9 507.9 320.6 507.9L320.6 507.9Q319.4 507.9 318.8 508.6Q318.3 509.2 318.3 510.1L318.3 510.1L318.3 510.8Q318.3 511.7 318.8 512.4Q319.4 513.0 320.6 513.0Z " clip-path="url(#satori_cp-id-1-0-1-0-2)" mask="url(#satori_om-id-1-0-1-0-2)"/><clipPath id="satori_cp-id-1-0-1-1"><rect x="870" y="489" width="202" height="36"/></clipPath><mask id="satori_om-id-1-0-1-1"><rect x="870" y="489" width="202" height="36" fill="#fff"/></mask><path fill="black" d="M871.8 520.1L871.8 499.4L876.0 499.4L876.0 511.1L876.2 511.1L878.1 508.9L881.1 505.6L885.9 505.6L880.3 511.4L886.5 520.1L881.5 520.1L877.3 513.7L876.0 515.1L876.0 520.1L871.8 520.1ZM895.6 520.4L895.6 520.4Q892.0 520.4 890.1 518.4Q888.2 516.4 888.2 512.9L888.2 512.9Q888.2 511.2 888.7 509.7Q889.2 508.3 890.1 507.3Q891 506.3 892.3 505.8Q893.6 505.3 895.2 505.3L895.2 505.3Q896.9 505.3 898.1 505.8Q899.4 506.3 900.3 507.3Q901.2 508.2 901.7 509.6Q902.2 511.0 902.2 512.6L902.2 512.6L902.2 513.9L892.3 513.9L892.3 514.1Q892.3 515.5 893.2 516.4Q894.1 517.2 895.7 517.2L895.7 517.2Q897.0 517.2 897.9 516.7Q898.9 516.3 899.5 515.4L899.5 515.4L901.8 517.9Q900.9 518.9 899.4 519.7Q897.9 520.4 895.6 520.4ZM895.3 508.3L895.3 508.3Q893.9 508.3 893.1 509.1Q892.3 509.9 892.3 511.3L892.3 511.3L892.3 511.6L898.1 511.6L898.1 511.3Q898.1 509.9 897.4 509.1Q896.6 508.3 895.3 508.3ZM905.7 520.1L905.7 516.9L909.0 516.9L909.0 508.9L905.7 508.9L905.7 505.6L913.1 505.6L913.1 509.7L913.3 509.7Q913.5 508.9 913.9 508.2Q914.2 507.5 914.8 506.9Q915.3 506.3 916.1 506.0Q916.9 505.6 918.0 505.6L918.0 505.6L919.3 505.6L919.3 509.5L916.3 509.5Q914.7 509.5 913.9 510.4Q913.1 511.3 913.1 512.6L913.1 512.6L913.1 516.9L917.9 516.9L917.9 520.1L905.7 520.1ZM922.5 520.1L922.5 516.9L925.8 516.9L925.8 508.9L922.5 508.9L922.5 505.6L929.9 505.6L929.9 509.7L930.1 509.7Q930.3 508.9 930.7 508.2Q931.0 507.5 931.6 506.9Q932.1 506.3 932.9 506.0Q933.7 505.6 934.8 505.6L934.8 505.6L936.1 505.6L936.1 509.5L933.1 509.5Q931.5 509.5 930.7 510.4Q929.9 511.3 929.9 512.6L929.9 512.6L929.9 516.9L934.7 516.9L934.7 520.1L922.5 520.1ZM946.5 503.8L946.5 503.8Q945.1 503.8 944.5 503.2Q944.0 502.6 944.0 501.8L944.0 501.8L944.0 501.0Q944.0 500.2 944.5 499.6Q945.1 499.1 946.5 499.1L946.5 499.1Q947.9 499.1 948.4 499.6Q949.0 500.2 949.0 501.0L949.0 501.0L949.0 501.8Q949.0 502.6 948.4 503.2Q947.9 503.8 946.5 503.8ZM939.8 520.1L939.8 516.9L944.4 516.9L944.4 508.9L939.8 508.9L939.8 505.6L948.6 505.6L948.6 516.9L952.8 516.9L952.8 520.1L939.8 520.1ZM964.2 508.5L960.6 508.5L960.6 499.4L964.2 499.4L964.2 508.5ZM979.0 520.4L979.0 520.4Q976.6 520.4 974.8 519.7Q973.1 519.0 972.2 517.7L972.2 517.7L974.5 515.6Q975.3 516.5 976.5 517.0Q977.6 517.5 979.1 517.5L979.1 517.5Q980.3 517.5 981.0 517.1Q981.7 516.8 981.7 516.0L981.7 516.0Q981.7 515.4 981.2 515.1Q980.7 514.9 979.9 514.7L979.9 514.7L977.6 514.4Q976.6 514.2 975.8 513.9Q974.9 513.7 974.3 513.1Q973.7 512.6 973.3 511.9Q973.0 511.2 973.0 510.2L973.0 510.2Q973.0 507.9 974.7 506.6Q976.4 505.3 979.6 505.3L979.6 505.3Q981.7 505.3 983.2 505.9Q984.7 506.5 985.6 507.5L985.6 507.5L983.5 509.9Q982.9 509.2 981.9 508.7Q980.9 508.2 979.4 508.2L979.4 508.2Q977.0 508.2 977.0 509.7L977.0 509.7Q977.0 510.3 977.5 510.6Q978.0 510.8 978.8 510.9L978.8 510.9L981.1 511.3Q982.1 511.4 982.9 511.7Q983.8 512.0 984.4 512.5Q985.0 513.0 985.4 513.8Q985.8 514.5 985.8 515.5L985.8 515.5Q985.8 517.8 984.0 519.1Q982.3 520.4 979.0 520.4Z M1006.1 520.1L1006.1 499.4L1010.2 499.4L1010.2 508.3L1010.4 508.3Q1010.9 507.0 1011.9 506.1Q1012.9 505.3 1014.7 505.3L1014.7 505.3Q1015.9 505.3 1016.9 505.8Q1017.9 506.2 1018.6 507.1Q1019.3 508.1 1019.7 509.5Q1020.1 510.9 1020.1 512.9L1020.1 512.9Q1020.1 514.8 1019.7 516.3Q1019.3 517.7 1018.6 518.6Q1017.9 519.5 1016.9 520.0Q1015.9 520.4 1014.7 520.4L1014.7 520.4Q1012.9 520.4 1011.9 519.6Q1010.9 518.8 1010.4 517.5L1010.4 517.5L1010.2 517.5L1010.2 520.1L1006.1 520.1ZM1012.9 517.2L1012.9 517.2Q1014.3 517.2 1015.0 516.4Q1015.8 515.5 1015.8 514.0L1015.8 514.0L1015.8 511.7Q1015.8 510.2 1015.0 509.4Q1014.3 508.5 1012.9 508.5L1012.9 508.5Q1011.8 508.5 1011.0 509.1Q1010.2 509.6 1010.2 510.7L1010.2 510.7L1010.2 515.0Q1010.2 516.1 1011.0 516.7Q1011.8 517.2 1012.9 517.2ZM1023.1 520.1L1023.1 516.9L1027.5 516.9L1027.5 502.6L1023.1 502.6L1023.1 499.4L1031.7 499.4L1031.7 516.9L1036.1 516.9L1036.1 520.1L1023.1 520.1ZM1046.4 520.4L1046.4 520.4Q1044.7 520.4 1043.4 519.9Q1042.0 519.4 1041.1 518.4Q1040.2 517.4 1039.7 516.0Q1039.1 514.6 1039.1 512.9L1039.1 512.9Q1039.1 511.1 1039.7 509.7Q1040.2 508.3 1041.1 507.3Q1042.0 506.3 1043.4 505.8Q1044.7 505.3 1046.4 505.3L1046.4 505.3Q1048.1 505.3 1049.4 505.8Q1050.8 506.3 1051.7 507.3Q1052.6 508.3 1053.1 509.7Q1053.7 511.1 1053.7 512.9L1053.7 512.9Q1053.7 514.6 1053.1 516.0Q1052.6 517.4 1051.7 518.4Q1050.8 519.4 1049.4 519.9Q1048.1 520.4 1046.4 520.4ZM1046.4 517.3L1046.4 517.3Q1047.8 517.3 1048.6 516.5Q1049.4 515.6 1049.4 514.0L1049.4 514.0L1049.4 511.7Q1049.4 510.1 1048.6 509.3Q1047.8 508.4 1046.4 508.4L1046.4 508.4Q1045 508.4 1044.2 509.3Q1043.4 510.1 1043.4 511.7L1043.4 511.7L1043.4 514.0Q1043.4 515.6 1044.2 516.5Q1045 517.3 1046.4 517.3ZM1071.1 521.5L1071.1 521.5Q1071.1 523.8 1069.2 524.9Q1067.3 526.0 1063.1 526.0L1063.1 526.0Q1061.0 526.0 1059.7 525.8Q1058.4 525.6 1057.6 525.1Q1056.8 524.7 1056.4 524.0Q1056.1 523.4 1056.1 522.7L1056.1 522.7Q1056.1 521.5 1056.8 520.8Q1057.6 520.2 1058.9 519.9L1058.9 519.9L1058.9 519.7Q1058.0 519.4 1057.4 518.9Q1056.9 518.4 1056.9 517.4L1056.9 517.4Q1056.9 516.4 1057.6 515.9Q1058.3 515.4 1059.5 515.1L1059.5 515.1L1059.5 514.9Q1058.2 514.3 1057.5 513.2Q1056.8 512.1 1056.8 510.5L1056.8 510.5Q1056.8 509.2 1057.2 508.2Q1057.7 507.3 1058.5 506.6Q1059.3 506.0 1060.5 505.6Q1061.6 505.3 1063.0 505.3L1063.0 505.3Q1064.4 505.3 1065.6 505.6L1065.6 505.6L1065.6 504.8Q1065.6 504.0 1066.2 503.4Q1066.8 502.9 1067.8 502.9L1067.8 502.9L1070.3 502.9L1070.3 505.9L1066.9 505.9L1066.9 506.1Q1068.0 506.8 1068.7 507.8Q1069.4 508.9 1069.4 510.5L1069.4 510.5Q1069.4 511.7 1068.9 512.7Q1068.5 513.6 1067.6 514.3Q1066.8 514.9 1065.6 515.3Q1064.5 515.6 1063.0 515.6L1063.0 515.6Q1062.4 515.6 1061.8 515.5Q1061.2 515.5 1060.7 515.3L1060.7 515.3Q1060.4 515.5 1060.2 515.8Q1060.0 516.0 1060.0 516.4L1060.0 516.4Q1060.0 516.7 1060.1 516.9Q1060.3 517.1 1060.6 517.2Q1060.9 517.3 1061.3 517.3Q1061.7 517.4 1062.1 517.4L1062.1 517.4L1065.4 517.4Q1066.9 517.4 1068.0 517.7Q1069.1 518.0 1069.8 518.6Q1070.5 519.1 1070.8 519.9Q1071.1 520.6 1071.1 521.5ZM1067.2 521.9L1067.2 521.9Q1067.2 521.3 1066.8 521.0Q1066.3 520.7 1065.0 520.7L1065.0 520.7L1060.1 520.7Q1059.5 521.1 1059.5 521.8L1059.5 521.8Q1059.5 522.5 1060.1 522.9Q1060.7 523.4 1062.1 523.4L1062.1 523.4L1064.5 523.4Q1065.9 523.4 1066.6 523.0Q1067.2 522.6 1067.2 521.9ZM1063.0 513.0L1063.0 513.0Q1064.3 513.0 1064.9 512.4Q1065.4 511.7 1065.4 510.8L1065.4 510.8L1065.4 510.1Q1065.4 509.2 1064.9 508.6Q1064.3 507.9 1063.0 507.9L1063.0 507.9Q1061.8 507.9 1061.2 508.6Q1060.7 509.2 1060.7 510.1L1060.7 510.1L1060.7 510.8Q1060.7 511.7 1061.2 512.4Q1061.8 513.0 1063.0 513.0Z " clip-path="url(#satori_cp-id-1-0-1-1)" mask="url(#satori_om-id-1-0-1-1)"/></svg>